<svg xmlns="http://www.w3.org/2000/svg" xmlns:v="https://svgstorm.com"
viewBox = "0 0 456 577"
width="456"
height="577">
<g fill="None" fill-opacity="0.0" stroke="#F9FCFA" stroke-opacity="1.00" stroke-width="0.3"><path d="
M 0.00 577.00 
L 456.00 577.00
L 456.00 0.00
L 0.00 0.00
L 0.00 577.00
M 380.00 3.00 
C 402.92 5.77 419.78 16.30 435.25 35.75 C 450.73 55.20 450.81 82.14 450.00 109.00 C 449.19 135.86 450.36 169.90 450.00 198.00 C 449.64 226.10 450.15 257.57 450.00 286.00 C 449.85 314.43 450.03 345.84 450.00 374.00 C 449.97 402.16 449.94 435.99 450.00 463.00 C 450.06 490.01 453.04 517.97 437.25 538.25 C 421.45 558.52 409.86 569.45 384.00 573.00 C 358.13 576.55 323.58 573.05 296.00 574.00 C 268.42 574.95 235.75 573.59 208.00 574.00 C 180.25 574.41 146.87 573.86 120.00 574.00 C 93.13 574.14 63.67 577.29 42.92 562.08 C 22.17 546.88 11.67 535.43 7.00 510.00 C 2.34 484.56 5.72 451.83 5.00 424.00 C 4.28 396.17 5.18 363.49 5.00 335.00 C 4.82 306.51 4.75 275.48 5.00 247.00 C 5.25 218.52 4.15 186.90 5.00 159.00 C 5.85 131.10 2.57 97.01 6.00 71.00 C 9.43 44.99 20.07 33.14 40.08 17.08 C 60.09 1.03 86.95 2.41 114.00 3.00 C 141.05 3.59 174.76 2.17 203.00 3.00 C 231.24 3.83 262.38 1.35 291.00 3.00 C 319.62 4.65 350.49 -0.57 379.00 3.00 Z"/>
</g>
<g fill="None" fill-opacity="0.0" stroke="#46BD58" stroke-opacity="1.00" stroke-width="0.3"><path d="
M 379.00 3.00 
C 350.49 -0.57 319.62 4.65 291.00 3.00 C 262.38 1.35 231.24 3.83 203.00 3.00 C 174.76 2.17 141.05 3.59 114.00 3.00 C 86.95 2.41 60.09 1.03 40.08 17.08 C 20.07 33.14 9.43 44.99 6.00 71.00 C 2.57 97.01 5.85 131.10 5.00 159.00 C 4.15 186.90 5.25 218.52 5.00 247.00 C 4.75 275.48 4.82 306.51 5.00 335.00 C 5.18 363.49 4.28 396.17 5.00 424.00 C 5.72 451.83 2.34 484.56 7.00 510.00 C 11.67 535.43 22.17 546.88 42.92 562.08 C 63.67 577.29 93.13 574.14 120.00 574.00 C 146.87 573.86 180.25 574.41 208.00 574.00 C 235.75 573.59 268.42 574.95 296.00 574.00 C 323.58 573.05 358.13 576.55 384.00 573.00 C 409.86 569.45 421.45 558.52 437.25 538.25 C 453.04 517.97 450.06 490.01 450.00 463.00 C 449.94 435.99 449.97 402.16 450.00 374.00 C 450.03 345.84 449.85 314.43 450.00 286.00 C 450.15 257.57 449.64 226.10 450.00 198.00 C 450.36 169.90 449.19 135.86 450.00 109.00 C 450.81 82.14 450.73 55.20 435.25 35.75 C 419.78 16.30 402.92 5.77 380.00 3.00
M 374.00 38.00 
C 391.91 40.56 409.72 53.82 413.98 74.02 C 418.23 94.23 415.41 124.71 416.00 148.00 C 416.59 171.29 415.78 199.58 416.00 224.00 C 416.22 248.42 415.99 276.21 416.00 301.00 C 416.01 325.79 416.19 352.30 416.00 377.00 C 415.81 401.70 416.52 428.82 416.00 453.00 C 415.48 477.18 420.33 499.70 406.25 519.25 C 392.16 538.79 372.62 539.74 349.00 539.00 C 325.38 538.26 297.36 539.38 273.00 539.00 C 248.64 538.62 221.45 539.27 197.00 539.00 C 172.55 538.73 144.95 539.34 121.00 539.00 C 97.05 538.66 74.31 543.24 56.25 526.75 C 38.19 510.26 39.75 490.91 40.00 467.00 C 40.25 443.09 39.84 415.62 40.00 391.00 C 40.16 366.38 39.84 339.84 40.00 315.00 C 40.16 290.16 39.72 262.63 40.00 238.00 C 40.28 213.37 39.42 185.81 40.00 162.00 C 40.58 138.19 38.72 107.98 40.00 86.00 C 41.28 64.02 50.66 49.24 71.23 41.23 C 91.80 33.21 121.39 39.27 145.00 38.00 C 168.61 36.73 196.51 37.97 221.00 38.00 C 245.49 38.03 272.19 36.64 297.00 38.00 C 321.81 39.36 349.33 34.48 374.00 38.00 Z"/>
</g>
<g fill="None" fill-opacity="0.0" stroke="#FDFEFD" stroke-opacity="1.00" stroke-width="0.3"><path d="
M 374.00 38.00 
C 349.33 34.48 321.81 39.36 297.00 38.00 C 272.19 36.64 245.49 38.03 221.00 38.00 C 196.51 37.97 168.61 36.73 145.00 38.00 C 121.39 39.27 91.80 33.21 71.23 41.23 C 50.66 49.24 41.28 64.02 40.00 86.00 C 38.72 107.98 40.58 138.19 40.00 162.00 C 39.42 185.81 40.28 213.37 40.00 238.00 C 39.72 262.63 40.16 290.16 40.00 315.00 C 39.84 339.84 40.16 366.38 40.00 391.00 C 39.84 415.62 40.25 443.09 40.00 467.00 C 39.75 490.91 38.19 510.26 56.25 526.75 C 74.31 543.24 97.05 538.66 121.00 539.00 C 144.95 539.34 172.55 538.73 197.00 539.00 C 221.45 539.27 248.64 538.62 273.00 539.00 C 297.36 539.38 325.38 538.26 349.00 539.00 C 372.62 539.74 392.16 538.79 406.25 519.25 C 420.33 499.70 415.48 477.18 416.00 453.00 C 416.52 428.82 415.81 401.70 416.00 377.00 C 416.19 352.30 416.01 325.79 416.00 301.00 C 415.99 276.21 416.22 248.42 416.00 224.00 C 415.78 199.58 416.59 171.29 416.00 148.00 C 415.41 124.71 418.23 94.23 413.98 74.02 C 409.72 53.82 391.91 40.56 374.00 38.00
M 255.00 62.00 
C 278.34 66.83 264.18 95.96 258.68 111.68 C 253.18 127.40 245.61 147.50 239.68 165.68 C 233.74 183.86 226.81 199.29 221.07 220.07 C 215.34 240.86 177.78 231.79 184.78 210.78 C 191.78 189.77 197.00 175.43 203.77 156.77 C 210.55 138.11 215.43 119.01 222.32 102.32 C 229.21 85.63 230.67 56.96 255.00 62.00
M 343.00 149.00 
C 331.85 140.70 319.50 127.28 306.25 120.75 C 293.00 114.23 274.42 95.47 292.25 83.25 C 310.08 71.03 320.36 93.38 335.08 99.92 C 349.80 106.46 357.61 120.58 373.25 127.75 C 388.88 134.93 390.73 159.18 374.77 166.77 C 358.81 174.36 351.33 187.51 336.30 194.30 C 321.28 201.10 311.76 222.04 293.31 212.69 C 274.85 203.35 289.19 181.55 303.70 175.70 C 318.20 169.85 328.08 153.63 343.00 149.00
M 114.00 148.00 
C 128.68 153.44 136.34 169.64 151.25 174.75 C 166.15 179.86 177.73 204.71 159.30 212.30 C 140.88 219.89 133.02 198.93 117.75 192.25 C 102.49 185.57 96.56 173.19 80.25 164.75 C 63.95 156.30 70.34 132.29 86.08 126.08 C 101.83 119.87 109.89 105.52 124.23 99.23 C 138.57 92.94 150.64 70.83 167.70 84.30 C 184.75 97.78 164.79 114.15 152.25 121.25 C 139.70 128.35 126.12 140.05 114.00 148.00
M 369.00 281.00 
C 387.29 283.97 394.24 317.50 372.92 322.92 C 351.61 328.34 325.88 324.00 303.00 325.00 C 280.12 326.00 254.03 324.72 231.00 325.00 C 207.97 325.28 181.55 325.27 159.00 325.00 C 136.45 324.73 108.34 326.15 87.33 324.67 C 66.32 323.19 62.95 287.66 83.08 283.08 C 103.20 278.49 130.50 281.43 153.00 281.00 C 175.50 280.57 201.80 280.57 225.00 281.00 C 248.20 281.43 273.64 279.43 297.00 281.00 C 320.36 282.57 345.90 277.25 369.00 281.00
M 368.00 356.00 
C 382.30 358.96 394.07 380.64 381.23 393.23 C 368.39 405.82 347.21 400.27 329.00 401.00 C 310.79 401.73 288.02 400.77 269.00 401.00 C 249.98 401.23 228.17 401.11 209.00 401.00 C 189.83 400.89 167.77 401.52 149.00 401.00 C 130.23 400.48 105.72 402.39 88.33 400.67 C 70.94 398.95 63.23 376.41 75.25 364.25 C 87.28 352.10 109.08 356.21 127.00 356.00 C 144.92 355.79 167.98 355.80 187.00 356.00 C 206.02 356.20 227.54 355.25 247.00 356.00 C 266.46 356.75 287.47 354.20 307.00 356.00 C 326.53 357.80 348.81 352.03 368.00 356.00
M 371.00 433.00 
C 383.52 436.10 391.49 453.97 383.22 466.22 C 374.96 478.48 358.59 477.80 343.00 477.00 C 327.41 476.20 307.37 477.44 291.00 477.00 C 274.63 476.56 256.64 477.36 240.00 477.00 C 223.36 476.64 204.55 477.51 188.00 477.00 C 171.45 476.49 153.03 478.03 137.00 477.00 C 120.97 475.97 100.42 479.60 85.93 476.07 C 71.43 472.54 65.54 456.93 72.92 443.92 C 80.31 430.92 97.59 432.37 113.00 433.00 C 128.41 433.63 148.67 432.58 165.00 433.00 C 181.33 433.42 199.27 432.51 216.00 433.00 C 232.73 433.49 251.19 432.13 268.00 433.00 C 284.81 433.87 302.34 431.14 319.00 433.00 C 335.66 434.86 354.82 428.99 371.00 433.00 Z"/>
</g>
<g fill="None" fill-opacity="0.0" stroke="#49BF59" stroke-opacity="1.00" stroke-width="0.3"><path d="
M 255.00 62.00 
C 230.67 56.96 229.21 85.63 222.32 102.32 C 215.43 119.01 210.55 138.11 203.77 156.77 C 197.00 175.43 191.78 189.77 184.78 210.78 C 177.78 231.79 215.34 240.86 221.07 220.07 C 226.81 199.29 233.74 183.86 239.68 165.68 C 245.61 147.50 253.18 127.40 258.68 111.68 C 264.18 95.96 278.34 66.83 255.00 62.00 Z"/>
</g>
<g fill="None" fill-opacity="0.0" stroke="#49BE5A" stroke-opacity="1.00" stroke-width="0.3"><path d="
M 343.00 149.00 
C 328.08 153.63 318.20 169.85 303.70 175.70 C 289.19 181.55 274.85 203.35 293.31 212.69 C 311.76 222.04 321.28 201.10 336.30 194.30 C 351.33 187.51 358.81 174.36 374.77 166.77 C 390.73 159.18 388.88 134.93 373.25 127.75 C 357.61 120.58 349.80 106.46 335.08 99.92 C 320.36 93.38 310.08 71.03 292.25 83.25 C 274.42 95.47 293.00 114.23 306.25 120.75 C 319.50 127.28 331.85 140.70 343.00 149.00 Z"/>
</g>
<g fill="None" fill-opacity="0.0" stroke="#48BE5A" stroke-opacity="1.00" stroke-width="0.3"><path d="
M 114.00 148.00 
C 126.12 140.05 139.70 128.35 152.25 121.25 C 164.79 114.15 184.75 97.78 167.70 84.30 C 150.64 70.83 138.57 92.94 124.23 99.23 C 109.89 105.52 101.83 119.87 86.08 126.08 C 70.34 132.29 63.95 156.30 80.25 164.75 C 96.56 173.19 102.49 185.57 117.75 192.25 C 133.02 198.93 140.88 219.89 159.30 212.30 C 177.73 204.71 166.15 179.86 151.25 174.75 C 136.34 169.64 128.68 153.44 114.00 148.00 Z"/>
</g>
<g fill="None" fill-opacity="0.0" stroke="#46BE58" stroke-opacity="1.00" stroke-width="0.3"><path d="
M 369.00 281.00 
C 345.90 277.25 320.36 282.57 297.00 281.00 C 273.64 279.43 248.20 281.43 225.00 281.00 C 201.80 280.57 175.50 280.57 153.00 281.00 C 130.50 281.43 103.20 278.49 83.08 283.08 C 62.95 287.66 66.32 323.19 87.33 324.67 C 108.34 326.15 136.45 324.73 159.00 325.00 C 181.55 325.27 207.97 325.28 231.00 325.00 C 254.03 324.72 280.12 326.00 303.00 325.00 C 325.88 324.00 351.61 328.34 372.92 322.92 C 394.24 317.50 387.29 283.97 369.00 281.00 Z"/>
</g>
<g fill="None" fill-opacity="0.0" stroke="#48BE5A" stroke-opacity="1.00" stroke-width="0.3"><path d="
M 368.00 356.00 
C 348.81 352.03 326.53 357.80 307.00 356.00 C 287.47 354.20 266.46 356.75 247.00 356.00 C 227.54 355.25 206.02 356.20 187.00 356.00 C 167.98 355.80 144.92 355.79 127.00 356.00 C 109.08 356.21 87.28 352.10 75.25 364.25 C 63.23 376.41 70.94 398.95 88.33 400.67 C 105.72 402.39 130.23 400.48 149.00 401.00 C 167.77 401.52 189.83 400.89 209.00 401.00 C 228.17 401.11 249.98 401.23 269.00 401.00 C 288.02 400.77 310.79 401.73 329.00 401.00 C 347.21 400.27 368.39 405.82 381.23 393.23 C 394.07 380.64 382.30 358.96 368.00 356.00 Z"/>
</g>
<g fill="None" fill-opacity="0.0" stroke="#44BD56" stroke-opacity="1.00" stroke-width="0.3"><path d="
M 371.00 433.00 
C 354.82 428.99 335.66 434.86 319.00 433.00 C 302.34 431.14 284.81 433.87 268.00 433.00 C 251.19 432.13 232.73 433.49 216.00 433.00 C 199.27 432.51 181.33 433.42 165.00 433.00 C 148.67 432.58 128.41 433.63 113.00 433.00 C 97.59 432.37 80.31 430.92 72.92 443.92 C 65.54 456.93 71.43 472.54 85.93 476.07 C 100.42 479.60 120.97 475.97 137.00 477.00 C 153.03 478.03 171.45 476.49 188.00 477.00 C 204.55 477.51 223.36 476.64 240.00 477.00 C 256.64 477.36 274.63 476.56 291.00 477.00 C 307.37 477.44 327.41 476.20 343.00 477.00 C 358.59 477.80 374.96 478.48 383.22 466.22 C 391.49 453.97 383.52 436.10 371.00 433.00 Z"/>
</g>
<g fill="#F9FCFA" fill-opacity="1.00" stroke="None">
<path d="
M 0.00 577.00 
L 456.00 577.00
L 456.00 0.00
L 0.00 0.00
L 0.00 577.00
M 380.00 3.00 
C 402.92 5.77 419.78 16.30 435.25 35.75 C 450.73 55.20 450.81 82.14 450.00 109.00 C 449.19 135.86 450.36 169.90 450.00 198.00 C 449.64 226.10 450.15 257.57 450.00 286.00 C 449.85 314.43 450.03 345.84 450.00 374.00 C 449.97 402.16 449.94 435.99 450.00 463.00 C 450.06 490.01 453.04 517.97 437.25 538.25 C 421.45 558.52 409.86 569.45 384.00 573.00 C 358.13 576.55 323.58 573.05 296.00 574.00 C 268.42 574.95 235.75 573.59 208.00 574.00 C 180.25 574.41 146.87 573.86 120.00 574.00 C 93.13 574.14 63.67 577.29 42.92 562.08 C 22.17 546.88 11.67 535.43 7.00 510.00 C 2.34 484.56 5.72 451.83 5.00 424.00 C 4.28 396.17 5.18 363.49 5.00 335.00 C 4.82 306.51 4.75 275.48 5.00 247.00 C 5.25 218.52 4.15 186.90 5.00 159.00 C 5.85 131.10 2.57 97.01 6.00 71.00 C 9.43 44.99 20.07 33.14 40.08 17.08 C 60.09 1.03 86.95 2.41 114.00 3.00 C 141.05 3.59 174.76 2.17 203.00 3.00 C 231.24 3.83 262.38 1.35 291.00 3.00 C 319.62 4.65 350.49 -0.57 379.00 3.00 Z"/>
</g>
<g fill="#46BD58" fill-opacity="1.00" stroke="None">
<path d="
M 379.00 3.00 
C 350.49 -0.57 319.62 4.65 291.00 3.00 C 262.38 1.35 231.24 3.83 203.00 3.00 C 174.76 2.17 141.05 3.59 114.00 3.00 C 86.95 2.41 60.09 1.03 40.08 17.08 C 20.07 33.14 9.43 44.99 6.00 71.00 C 2.57 97.01 5.85 131.10 5.00 159.00 C 4.15 186.90 5.25 218.52 5.00 247.00 C 4.75 275.48 4.82 306.51 5.00 335.00 C 5.18 363.49 4.28 396.17 5.00 424.00 C 5.72 451.83 2.34 484.56 7.00 510.00 C 11.67 535.43 22.17 546.88 42.92 562.08 C 63.67 577.29 93.13 574.14 120.00 574.00 C 146.87 573.86 180.25 574.41 208.00 574.00 C 235.75 573.59 268.42 574.95 296.00 574.00 C 323.58 573.05 358.13 576.55 384.00 573.00 C 409.86 569.45 421.45 558.52 437.25 538.25 C 453.04 517.97 450.06 490.01 450.00 463.00 C 449.94 435.99 449.97 402.16 450.00 374.00 C 450.03 345.84 449.85 314.43 450.00 286.00 C 450.15 257.57 449.64 226.10 450.00 198.00 C 450.36 169.90 449.19 135.86 450.00 109.00 C 450.81 82.14 450.73 55.20 435.25 35.75 C 419.78 16.30 402.92 5.77 380.00 3.00
M 374.00 38.00 
C 391.91 40.56 409.72 53.82 413.98 74.02 C 418.23 94.23 415.41 124.71 416.00 148.00 C 416.59 171.29 415.78 199.58 416.00 224.00 C 416.22 248.42 415.99 276.21 416.00 301.00 C 416.01 325.79 416.19 352.30 416.00 377.00 C 415.81 401.70 416.52 428.82 416.00 453.00 C 415.48 477.18 420.33 499.70 406.25 519.25 C 392.16 538.79 372.62 539.74 349.00 539.00 C 325.38 538.26 297.36 539.38 273.00 539.00 C 248.64 538.62 221.45 539.27 197.00 539.00 C 172.55 538.73 144.95 539.34 121.00 539.00 C 97.05 538.66 74.31 543.24 56.25 526.75 C 38.19 510.26 39.75 490.91 40.00 467.00 C 40.25 443.09 39.84 415.62 40.00 391.00 C 40.16 366.38 39.84 339.84 40.00 315.00 C 40.16 290.16 39.72 262.63 40.00 238.00 C 40.28 213.37 39.42 185.81 40.00 162.00 C 40.58 138.19 38.72 107.98 40.00 86.00 C 41.28 64.02 50.66 49.24 71.23 41.23 C 91.80 33.21 121.39 39.27 145.00 38.00 C 168.61 36.73 196.51 37.97 221.00 38.00 C 245.49 38.03 272.19 36.64 297.00 38.00 C 321.81 39.36 349.33 34.48 374.00 38.00 Z"/>
</g>
<g fill="#FDFEFD" fill-opacity="1.00" stroke="None">
<path d="
M 374.00 38.00 
C 349.33 34.48 321.81 39.36 297.00 38.00 C 272.19 36.64 245.49 38.03 221.00 38.00 C 196.51 37.97 168.61 36.73 145.00 38.00 C 121.39 39.27 91.80 33.21 71.23 41.23 C 50.66 49.24 41.28 64.02 40.00 86.00 C 38.72 107.98 40.58 138.19 40.00 162.00 C 39.42 185.81 40.28 213.37 40.00 238.00 C 39.72 262.63 40.16 290.16 40.00 315.00 C 39.84 339.84 40.16 366.38 40.00 391.00 C 39.84 415.62 40.25 443.09 40.00 467.00 C 39.75 490.91 38.19 510.26 56.25 526.75 C 74.31 543.24 97.05 538.66 121.00 539.00 C 144.95 539.34 172.55 538.73 197.00 539.00 C 221.45 539.27 248.64 538.62 273.00 539.00 C 297.36 539.38 325.38 538.26 349.00 539.00 C 372.62 539.74 392.16 538.79 406.25 519.25 C 420.33 499.70 415.48 477.18 416.00 453.00 C 416.52 428.82 415.81 401.70 416.00 377.00 C 416.19 352.30 416.01 325.79 416.00 301.00 C 415.99 276.21 416.22 248.42 416.00 224.00 C 415.78 199.58 416.59 171.29 416.00 148.00 C 415.41 124.71 418.23 94.23 413.98 74.02 C 409.72 53.82 391.91 40.56 374.00 38.00
M 255.00 62.00 
C 278.34 66.83 264.18 95.96 258.68 111.68 C 253.18 127.40 245.61 147.50 239.68 165.68 C 233.74 183.86 226.81 199.29 221.07 220.07 C 215.34 240.86 177.78 231.79 184.78 210.78 C 191.78 189.77 197.00 175.43 203.77 156.77 C 210.55 138.11 215.43 119.01 222.32 102.32 C 229.21 85.63 230.67 56.96 255.00 62.00
M 343.00 149.00 
C 331.85 140.70 319.50 127.28 306.25 120.75 C 293.00 114.23 274.42 95.47 292.25 83.25 C 310.08 71.03 320.36 93.38 335.08 99.92 C 349.80 106.46 357.61 120.58 373.25 127.75 C 388.88 134.93 390.73 159.18 374.77 166.77 C 358.81 174.36 351.33 187.51 336.30 194.30 C 321.28 201.10 311.76 222.04 293.31 212.69 C 274.85 203.35 289.19 181.55 303.70 175.70 C 318.20 169.85 328.08 153.63 343.00 149.00
M 114.00 148.00 
C 128.68 153.44 136.34 169.64 151.25 174.75 C 166.15 179.86 177.73 204.71 159.30 212.30 C 140.88 219.89 133.02 198.93 117.75 192.25 C 102.49 185.57 96.56 173.19 80.25 164.75 C 63.95 156.30 70.34 132.29 86.08 126.08 C 101.83 119.87 109.89 105.52 124.23 99.23 C 138.57 92.94 150.64 70.83 167.70 84.30 C 184.75 97.78 164.79 114.15 152.25 121.25 C 139.70 128.35 126.12 140.05 114.00 148.00
M 369.00 281.00 
C 387.29 283.97 394.24 317.50 372.92 322.92 C 351.61 328.34 325.88 324.00 303.00 325.00 C 280.12 326.00 254.03 324.72 231.00 325.00 C 207.97 325.28 181.55 325.27 159.00 325.00 C 136.45 324.73 108.34 326.15 87.33 324.67 C 66.32 323.19 62.95 287.66 83.08 283.08 C 103.20 278.49 130.50 281.43 153.00 281.00 C 175.50 280.57 201.80 280.57 225.00 281.00 C 248.20 281.43 273.64 279.43 297.00 281.00 C 320.36 282.57 345.90 277.25 369.00 281.00
M 368.00 356.00 
C 382.30 358.96 394.07 380.64 381.23 393.23 C 368.39 405.82 347.21 400.27 329.00 401.00 C 310.79 401.73 288.02 400.77 269.00 401.00 C 249.98 401.23 228.17 401.11 209.00 401.00 C 189.83 400.89 167.77 401.52 149.00 401.00 C 130.23 400.48 105.72 402.39 88.33 400.67 C 70.94 398.95 63.23 376.41 75.25 364.25 C 87.28 352.10 109.08 356.21 127.00 356.00 C 144.92 355.79 167.98 355.80 187.00 356.00 C 206.02 356.20 227.54 355.25 247.00 356.00 C 266.46 356.75 287.47 354.20 307.00 356.00 C 326.53 357.80 348.81 352.03 368.00 356.00
M 371.00 433.00 
C 383.52 436.10 391.49 453.97 383.22 466.22 C 374.96 478.48 358.59 477.80 343.00 477.00 C 327.41 476.20 307.37 477.44 291.00 477.00 C 274.63 476.56 256.64 477.36 240.00 477.00 C 223.36 476.64 204.55 477.51 188.00 477.00 C 171.45 476.49 153.03 478.03 137.00 477.00 C 120.97 475.97 100.42 479.60 85.93 476.07 C 71.43 472.54 65.54 456.93 72.92 443.92 C 80.31 430.92 97.59 432.37 113.00 433.00 C 128.41 433.63 148.67 432.58 165.00 433.00 C 181.33 433.42 199.27 432.51 216.00 433.00 C 232.73 433.49 251.19 432.13 268.00 433.00 C 284.81 433.87 302.34 431.14 319.00 433.00 C 335.66 434.86 354.82 428.99 371.00 433.00 Z"/>
</g>
<g fill="#49BF59" fill-opacity="1.00" stroke="None">
<path d="
M 255.00 62.00 
C 230.67 56.96 229.21 85.63 222.32 102.32 C 215.43 119.01 210.55 138.11 203.77 156.77 C 197.00 175.43 191.78 189.77 184.78 210.78 C 177.78 231.79 215.34 240.86 221.07 220.07 C 226.81 199.29 233.74 183.86 239.68 165.68 C 245.61 147.50 253.18 127.40 258.68 111.68 C 264.18 95.96 278.34 66.83 255.00 62.00 Z"/>
</g>
<g fill="#49BE5A" fill-opacity="1.00" stroke="None">
<path d="
M 343.00 149.00 
C 328.08 153.63 318.20 169.85 303.70 175.70 C 289.19 181.55 274.85 203.35 293.31 212.69 C 311.76 222.04 321.28 201.10 336.30 194.30 C 351.33 187.51 358.81 174.36 374.77 166.77 C 390.73 159.18 388.88 134.93 373.25 127.75 C 357.61 120.58 349.80 106.46 335.08 99.92 C 320.36 93.38 310.08 71.03 292.25 83.25 C 274.42 95.47 293.00 114.23 306.25 120.75 C 319.50 127.28 331.85 140.70 343.00 149.00 Z"/>
</g>
<g fill="#48BE5A" fill-opacity="1.00" stroke="None">
<path d="
M 114.00 148.00 
C 126.12 140.05 139.70 128.35 152.25 121.25 C 164.79 114.15 184.75 97.78 167.70 84.30 C 150.64 70.83 138.57 92.94 124.23 99.23 C 109.89 105.52 101.83 119.87 86.08 126.08 C 70.34 132.29 63.95 156.30 80.25 164.75 C 96.56 173.19 102.49 185.57 117.75 192.25 C 133.02 198.93 140.88 219.89 159.30 212.30 C 177.73 204.71 166.15 179.86 151.25 174.75 C 136.34 169.64 128.68 153.44 114.00 148.00 Z"/>
</g>
<g fill="#46BE58" fill-opacity="1.00" stroke="None">
<path d="
M 369.00 281.00 
C 345.90 277.25 320.36 282.57 297.00 281.00 C 273.64 279.43 248.20 281.43 225.00 281.00 C 201.80 280.57 175.50 280.57 153.00 281.00 C 130.50 281.43 103.20 278.49 83.08 283.08 C 62.95 287.66 66.32 323.19 87.33 324.67 C 108.34 326.15 136.45 324.73 159.00 325.00 C 181.55 325.27 207.97 325.28 231.00 325.00 C 254.03 324.72 280.12 326.00 303.00 325.00 C 325.88 324.00 351.61 328.34 372.92 322.92 C 394.24 317.50 387.29 283.97 369.00 281.00 Z"/>
</g>
<g fill="#48BE5A" fill-opacity="1.00" stroke="None">
<path d="
M 368.00 356.00 
C 348.81 352.03 326.53 357.80 307.00 356.00 C 287.47 354.20 266.46 356.75 247.00 356.00 C 227.54 355.25 206.02 356.20 187.00 356.00 C 167.98 355.80 144.92 355.79 127.00 356.00 C 109.08 356.21 87.28 352.10 75.25 364.25 C 63.23 376.41 70.94 398.95 88.33 400.67 C 105.72 402.39 130.23 400.48 149.00 401.00 C 167.77 401.52 189.83 400.89 209.00 401.00 C 228.17 401.11 249.98 401.23 269.00 401.00 C 288.02 400.77 310.79 401.73 329.00 401.00 C 347.21 400.27 368.39 405.82 381.23 393.23 C 394.07 380.64 382.30 358.96 368.00 356.00 Z"/>
</g>
<g fill="#44BD56" fill-opacity="1.00" stroke="None">
<path d="
M 371.00 433.00 
C 354.82 428.99 335.66 434.86 319.00 433.00 C 302.34 431.14 284.81 433.87 268.00 433.00 C 251.19 432.13 232.73 433.49 216.00 433.00 C 199.27 432.51 181.33 433.42 165.00 433.00 C 148.67 432.58 128.41 433.63 113.00 433.00 C 97.59 432.37 80.31 430.92 72.92 443.92 C 65.54 456.93 71.43 472.54 85.93 476.07 C 100.42 479.60 120.97 475.97 137.00 477.00 C 153.03 478.03 171.45 476.49 188.00 477.00 C 204.55 477.51 223.36 476.64 240.00 477.00 C 256.64 477.36 274.63 476.56 291.00 477.00 C 307.37 477.44 327.41 476.20 343.00 477.00 C 358.59 477.80 374.96 478.48 383.22 466.22 C 391.49 453.97 383.52 436.10 371.00 433.00 Z"/>
</g>
</svg>