<svg xmlns="http://www.w3.org/2000/svg" xmlns:v="https://svgstorm.com"
viewBox = "0 0 1536 1024"
width="1536"
height="1024">
<g fill="None" fill-opacity="0.0" stroke="#FEFEFE" stroke-opacity="1.00" stroke-width="0.3"><path d="
M 0.00 1024.00 
L 1536.00 1024.00
L 1536.00 0.00
L 0.00 0.00
L 0.00 1024.00
M 1394.00 932.00 
C 1357.65 937.90 1318.52 930.99 1281.00 933.00 C 1243.48 935.01 1204.78 932.10 1167.00 933.00 C 1129.22 933.90 1090.90 932.60 1053.00 933.00 C 1015.10 933.40 976.95 932.83 939.00 933.00 C 901.05 933.17 862.97 932.95 825.00 933.00 C 787.03 933.05 748.98 933.05 711.00 933.00 C 673.02 932.95 634.96 933.17 597.00 933.00 C 559.04 932.83 520.93 933.41 483.00 933.00 C 445.07 932.59 406.84 933.92 369.00 933.00 C 331.16 932.08 292.64 935.04 255.00 933.00 C 217.36 930.96 177.45 937.92 141.00 932.00
C 108.85 930.26 110.05 896.98 111.00 870.00 C 111.95 843.02 110.57 806.09 111.00 777.00 C 111.43 747.91 110.82 715.09 111.00 685.00 C 111.18 654.91 110.93 622.57 111.00 592.00 C 111.07 561.43 111.00 529.77 111.00 499.00 C 111.00 468.23 111.08 437.92 111.00 407.00 C 110.92 376.08 111.20 345.12 111.00 314.00 C 110.80 282.88 111.45 252.41 111.00 221.00 C 110.55 189.59 112.02 161.09 111.00 129.00 C 109.98 96.91 136.64 88.34 166.00 91.00 C 195.36 93.66 228.84 89.79 259.00 91.00 C 289.16 92.21 320.46 90.46 351.00 91.00 C 381.54 91.54 413.29 90.75 444.00 91.00 C 474.71 91.25 505.20 90.89 536.00 91.00 C 566.80 91.11 598.13 90.95 629.00 91.00 C 659.87 91.05 691.14 90.99 722.00 91.00 C 752.86 91.01 783.14 91.01 814.00 91.00 C 844.86 90.99 876.13 91.04 907.00 91.00 C 937.87 90.96 969.20 91.10 1000.00 91.00 C 1030.80 90.90 1061.29 91.22 1092.00 91.00 C 1122.71 90.78 1154.48 91.49 1185.00 91.00 C 1215.52 90.51 1247.97 92.08 1278.00 91.00 C 1308.03 89.92 1341.03 93.43 1370.00 91.00 C 1398.97 88.57 1425.41 97.40 1425.00 129.00 C 1424.59 160.60 1425.18 189.81 1425.00 221.00 C 1424.82 252.19 1425.07 282.97 1425.00 314.00 C 1424.93 345.03 1425.02 376.12 1425.00 407.00 C 1424.98 437.88 1424.97 468.25 1425.00 499.00 C 1425.03 529.75 1424.92 561.42 1425.00 592.00 C 1425.09 622.58 1424.80 654.88 1425.00 685.00 C 1425.20 715.12 1424.55 747.83 1425.00 777.00 C 1425.45 806.17 1424.01 842.84 1425.00 870.00 C 1425.99 897.16 1426.19 930.25 1394.00 932.00 Z"/>
</g>
<g fill="None" fill-opacity="0.0" stroke="#08C75B" stroke-opacity="1.00" stroke-width="0.3"><path d="
M 141.00 932.00 
C 210.27 935.76 279.56 930.37 349.00 932.00 C 418.44 933.63 488.44 931.39 558.00 932.00 C 627.56 932.61 697.40 932.00 767.00 932.00 C 836.60 932.00 906.40 932.62 976.00 932.00 C 1045.60 931.38 1115.44 933.65 1185.00 932.00 C 1254.56 930.35 1324.55 935.77 1394.00 932.00
C 1426.19 930.25 1425.99 897.16 1425.00 870.00 C 1424.01 842.84 1425.45 806.17 1425.00 777.00 C 1424.55 747.83 1425.20 715.12 1425.00 685.00 C 1424.80 654.88 1425.09 622.58 1425.00 592.00 C 1424.92 561.42 1425.03 529.75 1425.00 499.00 C 1424.97 468.25 1424.98 437.88 1425.00 407.00 C 1425.02 376.12 1424.93 345.03 1425.00 314.00 C 1425.07 282.97 1424.82 252.19 1425.00 221.00 C 1425.18 189.81 1424.59 160.60 1425.00 129.00 C 1425.41 97.40 1398.97 88.57 1370.00 91.00 C 1341.03 93.43 1308.03 89.92 1278.00 91.00 C 1247.97 92.08 1215.52 90.51 1185.00 91.00 C 1154.48 91.49 1122.71 90.78 1092.00 91.00 C 1061.29 91.22 1030.80 90.90 1000.00 91.00 C 969.20 91.10 937.87 90.96 907.00 91.00 C 876.13 91.04 844.86 90.99 814.00 91.00 C 783.14 91.01 752.86 91.01 722.00 91.00 C 691.14 90.99 659.87 91.05 629.00 91.00 C 598.13 90.95 566.80 91.11 536.00 91.00 C 505.20 90.89 474.71 91.25 444.00 91.00 C 413.29 90.75 381.54 91.54 351.00 91.00 C 320.46 90.46 289.16 92.21 259.00 91.00 C 228.84 89.79 195.36 93.66 166.00 91.00 C 136.64 88.34 109.98 96.91 111.00 129.00 C 112.02 161.09 110.55 189.59 111.00 221.00 C 111.45 252.41 110.80 282.88 111.00 314.00 C 111.20 345.12 110.92 376.08 111.00 407.00 C 111.08 437.92 111.00 468.23 111.00 499.00 C 111.00 529.77 111.07 561.43 111.00 592.00 C 110.93 622.57 111.18 654.91 111.00 685.00 C 110.82 715.09 111.43 747.91 111.00 777.00 C 110.57 806.09 111.95 843.02 111.00 870.00 C 110.05 896.98 108.85 930.26 141.00 932.00
M 1371.00 143.00 
C 1371.00 387.00 1371.00 631.00 1371.00 875.00
C 968.67 875.00 566.33 875.00 164.00 875.00
C 164.00 631.00 164.00 387.00 164.00 143.00
C 566.33 143.00 968.67 143.00 1371.00 143.00 Z"/>
</g>
<g fill="None" fill-opacity="0.0" stroke="#FEFEFE" stroke-opacity="1.00" stroke-width="0.3"><path d="
M 1371.00 143.00 
C 968.67 143.00 566.33 143.00 164.00 143.00
C 164.00 387.00 164.00 631.00 164.00 875.00
C 566.33 875.00 968.67 875.00 1371.00 875.00
C 1371.00 631.00 1371.00 387.00 1371.00 143.00
M 769.00 177.00 
C 796.53 179.08 790.96 210.52 791.00 233.00 C 791.04 255.48 790.97 287.44 791.00 312.00 C 791.03 336.56 790.97 365.56 791.00 391.00 C 791.03 416.44 790.95 444.26 791.00 470.00 C 791.05 495.74 790.89 522.24 791.00 548.00 C 791.11 573.76 790.77 601.49 791.00 627.00 C 791.23 652.51 790.50 681.29 791.00 706.00 C 791.50 730.71 789.90 762.18 791.00 785.00 C 792.10 807.82 793.87 840.52 765.00 838.00 C 736.13 835.48 743.55 804.74 743.00 782.00 C 742.45 759.26 743.25 727.67 743.00 703.00 C 742.75 678.33 743.13 649.49 743.00 624.00 C 742.87 598.51 743.08 570.75 743.00 545.00 C 742.92 519.25 743.10 492.74 743.00 467.00 C 742.90 441.26 743.18 413.45 743.00 388.00 C 742.82 362.55 743.38 333.57 743.00 309.00 C 742.62 284.43 743.83 252.52 743.00 230.00 C 742.17 207.48 739.77 174.79 769.00 177.00
M 487.00 211.00 
C 512.30 215.11 503.99 244.84 497.68 261.68 C 491.37 278.51 485.03 302.33 479.07 320.07 C 473.12 337.82 467.09 360.69 461.07 378.07 C 455.06 395.46 452.39 424.45 426.98 419.02 C 401.57 413.60 409.28 387.65 415.93 369.93 C 422.57 352.21 427.48 329.13 433.93 310.93 C 440.37 292.72 445.77 270.86 451.93 252.93 C 458.08 234.99 460.63 206.72 487.00 211.00
M 381.00 229.00 
C 392.37 231.36 399.43 246.66 396.22 257.22 C 393.01 267.79 382.01 273.08 374.25 280.25 C 366.49 287.42 357.03 293.31 349.25 300.25 C 341.47 307.20 326.66 314.30 337.08 321.92 C 347.51 329.54 352.34 334.79 361.75 342.25 C 371.15 349.72 376.63 355.28 385.75 363.25 C 394.87 371.22 393.91 386.57 385.25 395.25 C 376.59 403.92 361.38 403.32 352.75 395.25 C 344.13 387.18 336.95 381.92 328.30 374.70 C 319.66 367.47 312.71 360.95 303.92 354.08 C 295.13 347.22 288.63 340.26 279.30 333.70 C 269.97 327.13 265.46 311.55 273.77 302.77 C 282.08 293.99 289.80 290.01 298.25 282.25 C 306.69 274.48 314.67 269.89 323.23 262.23 C 331.79 254.57 339.34 250.33 348.23 242.23 C 357.12 234.13 367.20 226.14 381.00 229.00
M 562.00 229.00 
C 572.66 231.21 580.48 243.42 589.75 249.25 C 599.02 255.08 606.96 264.54 616.23 270.77 C 625.50 277.00 632.70 286.73 642.25 292.75 C 651.79 298.77 662.78 310.97 657.67 322.67 C 652.56 334.38 642.36 338.44 633.75 346.75 C 625.15 355.07 616.31 360.36 607.75 368.75 C 599.20 377.14 589.56 380.92 581.25 390.25 C 572.93 399.58 558.41 405.66 546.77 399.23 C 535.13 392.80 530.87 376.61 538.77 366.77 C 546.67 356.93 554.47 352.35 564.25 344.25 C 574.02 336.15 579.28 330.43 590.25 322.25 C 601.22 314.07 586.92 307.48 578.25 299.75 C 569.58 292.02 561.25 285.34 551.92 278.08 C 542.59 270.83 531.26 262.77 533.00 249.00 C 534.74 235.23 547.78 226.05 562.00 229.00
M 1272.00 251.00 
C 1286.42 253.99 1298.15 273.98 1287.08 288.08 C 1276.01 302.17 1257.33 300.55 1239.00 300.00 C 1220.67 299.45 1198.30 300.26 1179.00 300.00 C 1159.70 299.74 1137.66 300.16 1118.00 300.00 C 1098.34 299.84 1077.70 300.17 1058.00 300.00 C 1038.30 299.83 1017.53 300.28 998.00 300.00 C 978.48 299.72 957.04 300.59 938.00 300.00 C 918.96 299.41 895.47 301.68 877.93 299.07 C 860.39 296.47 851.61 277.52 861.31 262.31 C 871.00 247.09 892.04 251.02 910.00 251.00 C 927.96 250.98 950.84 250.95 970.00 251.00 C 989.16 251.05 1011.35 250.84 1031.00 251.00 C 1050.65 251.16 1071.20 250.63 1091.00 251.00 C 1110.80 251.37 1131.18 250.17 1151.00 251.00 C 1170.82 251.83 1191.28 249.16 1211.00 251.00 C 1230.72 252.84 1252.67 247.00 1272.00 251.00
M 1270.00 400.00 
C 1287.83 402.90 1301.27 432.28 1281.75 443.75 C 1262.24 455.22 1236.09 447.28 1213.00 449.00 C 1189.91 450.72 1162.75 448.31 1139.00 449.00 C 1115.25 449.69 1088.79 448.88 1065.00 449.00 C 1041.21 449.12 1014.26 449.37 991.00 449.00 C 967.74 448.63 938.78 450.11 917.00 449.00 C 895.22 447.89 867.02 456.76 859.03 431.98 C 851.03 407.19 877.04 397.31 899.00 400.00 C 920.96 402.69 949.57 398.65 973.00 400.00 C 996.43 401.35 1022.92 399.10 1047.00 400.00 C 1071.08 400.90 1096.66 398.96 1121.00 400.00 C 1145.34 401.04 1170.61 398.12 1195.00 400.00 C 1219.39 401.88 1245.87 396.08 1270.00 400.00
M 657.00 553.00 
C 686.28 554.59 685.28 602.00 654.00 601.00 C 622.72 600.00 589.62 601.32 558.00 601.00 C 526.38 600.68 493.72 600.87 462.00 601.00 C 430.28 601.13 397.63 600.33 366.00 601.00 C 334.37 601.67 301.29 599.33 270.00 601.00 C 238.71 602.67 236.25 555.02 266.00 553.00
C 296.90 547.46 330.92 553.56 363.00 552.00 C 395.08 550.44 428.72 552.08 461.00 552.00 C 493.28 551.92 526.77 550.66 559.00 552.00 C 591.23 553.34 625.89 547.95 657.00 553.00
M 1270.00 552.00 
C 1287.97 554.92 1301.36 584.18 1281.75 595.75 C 1262.15 607.33 1236.16 599.24 1213.00 601.00 C 1189.84 602.76 1162.78 600.29 1139.00 601.00 C 1115.22 601.71 1088.82 600.87 1065.00 601.00 C 1041.18 601.13 1014.29 601.36 991.00 601.00 C 967.71 600.64 938.84 602.10 917.00 601.00 C 895.16 599.90 867.02 608.85 859.03 583.98 C 851.03 559.10 877.02 549.35 899.00 552.00 C 920.98 554.65 949.56 550.68 973.00 552.00 C 996.44 553.32 1022.91 551.11 1047.00 552.00 C 1071.09 552.89 1096.65 550.96 1121.00 552.00 C 1145.35 553.04 1170.61 550.12 1195.00 552.00 C 1219.39 553.88 1245.87 548.08 1270.00 552.00
M 657.00 646.00 
C 686.61 647.61 685.16 694.83 654.00 694.00 C 622.84 693.17 589.50 694.14 558.00 694.00 C 526.50 693.86 494.62 693.53 463.00 694.00 C 431.38 694.47 398.59 692.62 367.00 694.00 C 335.41 695.38 303.39 690.74 272.00 694.00 C 240.61 697.26 234.85 647.69 266.00 646.00
C 297.05 640.96 330.85 646.34 363.00 645.00 C 395.15 643.66 428.69 644.99 461.00 645.00 C 493.31 645.01 526.76 643.62 559.00 645.00 C 591.24 646.38 625.87 640.95 657.00 646.00
M 1272.00 704.00 
C 1286.42 706.99 1298.15 726.98 1287.08 741.08 C 1276.01 755.17 1257.34 753.55 1239.00 753.00 C 1220.66 752.45 1198.30 753.26 1179.00 753.00 C 1159.70 752.74 1137.66 753.16 1118.00 753.00 C 1098.34 752.84 1077.70 753.17 1058.00 753.00 C 1038.30 752.83 1017.53 753.28 998.00 753.00 C 978.48 752.72 957.04 753.59 938.00 753.00 C 918.96 752.41 895.47 754.68 877.93 752.07 C 860.39 749.47 851.61 730.51 861.31 715.31 C 871.00 700.10 892.04 704.02 910.00 704.00 C 927.96 703.98 950.84 703.95 970.00 704.00 C 989.16 704.05 1011.35 703.85 1031.00 704.00 C 1050.65 704.15 1071.20 703.63 1091.00 704.00 C 1110.80 704.37 1131.18 703.17 1151.00 704.00 C 1170.82 704.83 1191.28 702.16 1211.00 704.00 C 1230.72 705.84 1252.67 700.00 1272.00 704.00 Z"/>
</g>
<g fill="None" fill-opacity="0.0" stroke="#05C75B" stroke-opacity="1.00" stroke-width="0.3"><path d="
M 769.00 177.00 
C 739.77 174.79 742.17 207.48 743.00 230.00 C 743.83 252.52 742.62 284.43 743.00 309.00 C 743.38 333.57 742.82 362.55 743.00 388.00 C 743.18 413.45 742.90 441.26 743.00 467.00 C 743.10 492.74 742.92 519.25 743.00 545.00 C 743.08 570.75 742.87 598.51 743.00 624.00 C 743.13 649.49 742.75 678.33 743.00 703.00 C 743.25 727.67 742.45 759.26 743.00 782.00 C 743.55 804.74 736.13 835.48 765.00 838.00 C 793.87 840.52 792.10 807.82 791.00 785.00 C 789.90 762.18 791.50 730.71 791.00 706.00 C 790.50 681.29 791.23 652.51 791.00 627.00 C 790.77 601.49 791.11 573.76 791.00 548.00 C 790.89 522.24 791.05 495.74 791.00 470.00 C 790.95 444.26 791.03 416.44 791.00 391.00 C 790.97 365.56 791.03 336.56 791.00 312.00 C 790.97 287.44 791.04 255.48 791.00 233.00 C 790.96 210.52 796.53 179.08 769.00 177.00 Z"/>
</g>
<g fill="None" fill-opacity="0.0" stroke="#11C75D" stroke-opacity="1.00" stroke-width="0.3"><path d="
M 487.00 211.00 
C 460.63 206.72 458.08 234.99 451.93 252.93 C 445.77 270.86 440.37 292.72 433.93 310.93 C 427.48 329.13 422.57 352.21 415.93 369.93 C 409.28 387.65 401.57 413.60 426.98 419.02 C 452.39 424.45 455.06 395.46 461.07 378.07 C 467.09 360.69 473.12 337.82 479.07 320.07 C 485.03 302.33 491.37 278.51 497.68 261.68 C 503.99 244.84 512.30 215.11 487.00 211.00 Z"/>
</g>
<g fill="None" fill-opacity="0.0" stroke="#10C75D" stroke-opacity="1.00" stroke-width="0.3"><path d="
M 381.00 229.00 
C 367.20 226.14 357.12 234.13 348.23 242.23 C 339.34 250.33 331.79 254.57 323.23 262.23 C 314.67 269.89 306.69 274.48 298.25 282.25 C 289.80 290.01 282.08 293.99 273.77 302.77 C 265.46 311.55 269.97 327.13 279.30 333.70 C 288.63 340.26 295.13 347.22 303.92 354.08 C 312.71 360.95 319.66 367.47 328.30 374.70 C 336.95 381.92 344.13 387.18 352.75 395.25 C 361.38 403.32 376.59 403.92 385.25 395.25 C 393.91 386.57 394.87 371.22 385.75 363.25 C 376.63 355.28 371.15 349.72 361.75 342.25 C 352.34 334.79 347.51 329.54 337.08 321.92 C 326.66 314.30 341.47 307.20 349.25 300.25 C 357.03 293.31 366.49 287.42 374.25 280.25 C 382.01 273.08 393.01 267.79 396.22 257.22 C 399.43 246.66 392.37 231.36 381.00 229.00 Z"/>
</g>
<g fill="None" fill-opacity="0.0" stroke="#10C75D" stroke-opacity="1.00" stroke-width="0.3"><path d="
M 562.00 229.00 
C 547.78 226.05 534.74 235.23 533.00 249.00 C 531.26 262.77 542.59 270.83 551.92 278.08 C 561.25 285.34 569.58 292.02 578.25 299.75 C 586.92 307.48 601.22 314.07 590.25 322.25 C 579.28 330.43 574.02 336.15 564.25 344.25 C 554.47 352.35 546.67 356.93 538.77 366.77 C 530.87 376.61 535.13 392.80 546.77 399.23 C 558.41 405.66 572.93 399.58 581.25 390.25 C 589.56 380.92 599.20 377.14 607.75 368.75 C 616.31 360.36 625.15 355.07 633.75 346.75 C 642.36 338.44 652.56 334.38 657.67 322.67 C 662.78 310.97 651.79 298.77 642.25 292.75 C 632.70 286.73 625.50 277.00 616.23 270.77 C 606.96 264.54 599.02 255.08 589.75 249.25 C 580.48 243.42 572.66 231.21 562.00 229.00 Z"/>
</g>
<g fill="None" fill-opacity="0.0" stroke="#13C75D" stroke-opacity="1.00" stroke-width="0.3"><path d="
M 1272.00 251.00 
C 1252.67 247.00 1230.72 252.84 1211.00 251.00 C 1191.28 249.16 1170.82 251.83 1151.00 251.00 C 1131.18 250.17 1110.80 251.37 1091.00 251.00 C 1071.20 250.63 1050.65 251.16 1031.00 251.00 C 1011.35 250.84 989.16 251.05 970.00 251.00 C 950.84 250.95 927.96 250.98 910.00 251.00 C 892.04 251.02 871.00 247.09 861.31 262.31 C 851.61 277.52 860.39 296.47 877.93 299.07 C 895.47 301.68 918.96 299.41 938.00 300.00 C 957.04 300.59 978.48 299.72 998.00 300.00 C 1017.53 300.28 1038.30 299.83 1058.00 300.00 C 1077.70 300.17 1098.34 299.84 1118.00 300.00 C 1137.66 300.16 1159.70 299.74 1179.00 300.00 C 1198.30 300.26 1220.67 299.45 1239.00 300.00 C 1257.33 300.55 1276.01 302.17 1287.08 288.08 C 1298.15 273.98 1286.42 253.99 1272.00 251.00 Z"/>
</g>
<g fill="None" fill-opacity="0.0" stroke="#10C75D" stroke-opacity="1.00" stroke-width="0.3"><path d="
M 1270.00 400.00 
C 1245.87 396.08 1219.39 401.88 1195.00 400.00 C 1170.61 398.12 1145.34 401.04 1121.00 400.00 C 1096.66 398.96 1071.08 400.90 1047.00 400.00 C 1022.92 399.10 996.43 401.35 973.00 400.00 C 949.57 398.65 920.96 402.69 899.00 400.00 C 877.04 397.31 851.03 407.19 859.03 431.98 C 867.02 456.76 895.22 447.89 917.00 449.00 C 938.78 450.11 967.74 448.63 991.00 449.00 C 1014.26 449.37 1041.21 449.12 1065.00 449.00 C 1088.79 448.88 1115.25 449.69 1139.00 449.00 C 1162.75 448.31 1189.91 450.72 1213.00 449.00 C 1236.09 447.28 1262.24 455.22 1281.75 443.75 C 1301.27 432.28 1287.83 402.90 1270.00 400.00 Z"/>
</g>
<g fill="None" fill-opacity="0.0" stroke="#8EE5B5" stroke-opacity="1.00" stroke-width="0.3"><path d="
M 266.00 553.00 
C 309.12 550.07 352.74 553.89 396.00 553.00 C 439.26 552.11 482.66 552.44 526.00 553.00 C 569.34 553.56 613.68 550.65 657.00 553.00
C 625.89 547.95 591.23 553.34 559.00 552.00 C 526.77 550.66 493.28 551.92 461.00 552.00 C 428.72 552.08 395.08 550.44 363.00 552.00 C 330.92 553.56 296.90 547.46 266.00 553.00 Z"/>
</g>
<g fill="None" fill-opacity="0.0" stroke="#10C75D" stroke-opacity="1.00" stroke-width="0.3"><path d="
M 1270.00 552.00 
C 1245.87 548.08 1219.39 553.88 1195.00 552.00 C 1170.61 550.12 1145.35 553.04 1121.00 552.00 C 1096.65 550.96 1071.09 552.89 1047.00 552.00 C 1022.91 551.11 996.44 553.32 973.00 552.00 C 949.56 550.68 920.98 554.65 899.00 552.00 C 877.02 549.35 851.03 559.10 859.03 583.98 C 867.02 608.85 895.16 599.90 917.00 601.00 C 938.84 602.10 967.71 600.64 991.00 601.00 C 1014.29 601.36 1041.18 601.13 1065.00 601.00 C 1088.82 600.87 1115.22 601.71 1139.00 601.00 C 1162.78 600.29 1189.84 602.76 1213.00 601.00 C 1236.16 599.24 1262.15 607.33 1281.75 595.75 C 1301.36 584.18 1287.97 554.92 1270.00 552.00 Z"/>
</g>
<g fill="None" fill-opacity="0.0" stroke="#07C75B" stroke-opacity="1.00" stroke-width="0.3"><path d="
M 657.00 553.00 
C 613.68 550.65 569.34 553.56 526.00 553.00 C 482.66 552.44 439.26 552.11 396.00 553.00 C 352.74 553.89 309.12 550.07 266.00 553.00
C 236.25 555.02 238.71 602.67 270.00 601.00 C 301.29 599.33 334.37 601.67 366.00 601.00 C 397.63 600.33 430.28 601.13 462.00 601.00 C 493.72 600.87 526.38 600.68 558.00 601.00 C 589.62 601.32 622.72 600.00 654.00 601.00 C 685.28 602.00 686.28 554.59 657.00 553.00 Z"/>
</g>
<g fill="None" fill-opacity="0.0" stroke="#91E6B6" stroke-opacity="1.00" stroke-width="0.3"><path d="
M 266.00 646.00 
C 309.20 643.65 352.70 646.63 396.00 646.00 C 439.30 645.37 482.64 645.34 526.00 646.00 C 569.36 646.66 613.66 643.65 657.00 646.00
C 625.87 640.95 591.24 646.38 559.00 645.00 C 526.76 643.62 493.31 645.01 461.00 645.00 C 428.69 644.99 395.15 643.66 363.00 645.00 C 330.85 646.34 297.05 640.96 266.00 646.00 Z"/>
</g>
<g fill="None" fill-opacity="0.0" stroke="#06C75B" stroke-opacity="1.00" stroke-width="0.3"><path d="
M 657.00 646.00 
C 613.66 643.65 569.36 646.66 526.00 646.00 C 482.64 645.34 439.30 645.37 396.00 646.00 C 352.70 646.63 309.20 643.65 266.00 646.00
C 234.85 647.69 240.61 697.26 272.00 694.00 C 303.39 690.74 335.41 695.38 367.00 694.00 C 398.59 692.62 431.38 694.47 463.00 694.00 C 494.62 693.53 526.50 693.86 558.00 694.00 C 589.50 694.14 622.84 693.17 654.00 694.00 C 685.16 694.83 686.61 647.61 657.00 646.00 Z"/>
</g>
<g fill="None" fill-opacity="0.0" stroke="#13C75D" stroke-opacity="1.00" stroke-width="0.3"><path d="
M 1272.00 704.00 
C 1252.67 700.00 1230.72 705.84 1211.00 704.00 C 1191.28 702.16 1170.82 704.83 1151.00 704.00 C 1131.18 703.17 1110.80 704.37 1091.00 704.00 C 1071.20 703.63 1050.65 704.15 1031.00 704.00 C 1011.35 703.85 989.16 704.05 970.00 704.00 C 950.84 703.95 927.96 703.98 910.00 704.00 C 892.04 704.02 871.00 700.10 861.31 715.31 C 851.61 730.51 860.39 749.47 877.93 752.07 C 895.47 754.68 918.96 752.41 938.00 753.00 C 957.04 753.59 978.48 752.72 998.00 753.00 C 1017.53 753.28 1038.30 752.83 1058.00 753.00 C 1077.70 753.17 1098.34 752.84 1118.00 753.00 C 1137.66 753.16 1159.70 752.74 1179.00 753.00 C 1198.30 753.26 1220.66 752.45 1239.00 753.00 C 1257.34 753.55 1276.01 755.17 1287.08 741.08 C 1298.15 726.98 1286.42 706.99 1272.00 704.00 Z"/>
</g>
<g fill="None" fill-opacity="0.0" stroke="#82E2AD" stroke-opacity="1.00" stroke-width="0.3"><path d="
M 1394.00 932.00 
C 1324.55 935.77 1254.56 930.35 1185.00 932.00 C 1115.44 933.65 1045.60 931.38 976.00 932.00 C 906.40 932.62 836.60 932.00 767.00 932.00 C 697.40 932.00 627.56 932.61 558.00 932.00 C 488.44 931.39 418.44 933.63 349.00 932.00 C 279.56 930.37 210.27 935.76 141.00 932.00
C 177.45 937.92 217.36 930.96 255.00 933.00 C 292.64 935.04 331.16 932.08 369.00 933.00 C 406.84 933.92 445.07 932.59 483.00 933.00 C 520.93 933.41 559.04 932.83 597.00 933.00 C 634.96 933.17 673.02 932.95 711.00 933.00 C 748.98 933.05 787.03 933.05 825.00 933.00 C 862.97 932.95 901.05 933.17 939.00 933.00 C 976.95 932.83 1015.10 933.40 1053.00 933.00 C 1090.90 932.60 1129.22 933.90 1167.00 933.00 C 1204.78 932.10 1243.48 935.01 1281.00 933.00 C 1318.52 930.99 1357.65 937.90 1394.00 932.00 Z"/>
</g>
<g fill="#FEFEFE" fill-opacity="1.00" stroke="None">
<path d="
M 0.00 1024.00 
L 1536.00 1024.00
L 1536.00 0.00
L 0.00 0.00
L 0.00 1024.00
M 1394.00 932.00 
C 1357.65 937.90 1318.52 930.99 1281.00 933.00 C 1243.48 935.01 1204.78 932.10 1167.00 933.00 C 1129.22 933.90 1090.90 932.60 1053.00 933.00 C 1015.10 933.40 976.95 932.83 939.00 933.00 C 901.05 933.17 862.97 932.95 825.00 933.00 C 787.03 933.05 748.98 933.05 711.00 933.00 C 673.02 932.95 634.96 933.17 597.00 933.00 C 559.04 932.83 520.93 933.41 483.00 933.00 C 445.07 932.59 406.84 933.92 369.00 933.00 C 331.16 932.08 292.64 935.04 255.00 933.00 C 217.36 930.96 177.45 937.92 141.00 932.00
C 108.85 930.26 110.05 896.98 111.00 870.00 C 111.95 843.02 110.57 806.09 111.00 777.00 C 111.43 747.91 110.82 715.09 111.00 685.00 C 111.18 654.91 110.93 622.57 111.00 592.00 C 111.07 561.43 111.00 529.77 111.00 499.00 C 111.00 468.23 111.08 437.92 111.00 407.00 C 110.92 376.08 111.20 345.12 111.00 314.00 C 110.80 282.88 111.45 252.41 111.00 221.00 C 110.55 189.59 112.02 161.09 111.00 129.00 C 109.98 96.91 136.64 88.34 166.00 91.00 C 195.36 93.66 228.84 89.79 259.00 91.00 C 289.16 92.21 320.46 90.46 351.00 91.00 C 381.54 91.54 413.29 90.75 444.00 91.00 C 474.71 91.25 505.20 90.89 536.00 91.00 C 566.80 91.11 598.13 90.95 629.00 91.00 C 659.87 91.05 691.14 90.99 722.00 91.00 C 752.86 91.01 783.14 91.01 814.00 91.00 C 844.86 90.99 876.13 91.04 907.00 91.00 C 937.87 90.96 969.20 91.10 1000.00 91.00 C 1030.80 90.90 1061.29 91.22 1092.00 91.00 C 1122.71 90.78 1154.48 91.49 1185.00 91.00 C 1215.52 90.51 1247.97 92.08 1278.00 91.00 C 1308.03 89.92 1341.03 93.43 1370.00 91.00 C 1398.97 88.57 1425.41 97.40 1425.00 129.00 C 1424.59 160.60 1425.18 189.81 1425.00 221.00 C 1424.82 252.19 1425.07 282.97 1425.00 314.00 C 1424.93 345.03 1425.02 376.12 1425.00 407.00 C 1424.98 437.88 1424.97 468.25 1425.00 499.00 C 1425.03 529.75 1424.92 561.42 1425.00 592.00 C 1425.09 622.58 1424.80 654.88 1425.00 685.00 C 1425.20 715.12 1424.55 747.83 1425.00 777.00 C 1425.45 806.17 1424.01 842.84 1425.00 870.00 C 1425.99 897.16 1426.19 930.25 1394.00 932.00 Z"/>
</g>
<g fill="#08C75B" fill-opacity="1.00" stroke="None">
<path d="
M 141.00 932.00 
C 210.27 935.76 279.56 930.37 349.00 932.00 C 418.44 933.63 488.44 931.39 558.00 932.00 C 627.56 932.61 697.40 932.00 767.00 932.00 C 836.60 932.00 906.40 932.62 976.00 932.00 C 1045.60 931.38 1115.44 933.65 1185.00 932.00 C 1254.56 930.35 1324.55 935.77 1394.00 932.00
C 1426.19 930.25 1425.99 897.16 1425.00 870.00 C 1424.01 842.84 1425.45 806.17 1425.00 777.00 C 1424.55 747.83 1425.20 715.12 1425.00 685.00 C 1424.80 654.88 1425.09 622.58 1425.00 592.00 C 1424.92 561.42 1425.03 529.75 1425.00 499.00 C 1424.97 468.25 1424.98 437.88 1425.00 407.00 C 1425.02 376.12 1424.93 345.03 1425.00 314.00 C 1425.07 282.97 1424.82 252.19 1425.00 221.00 C 1425.18 189.81 1424.59 160.60 1425.00 129.00 C 1425.41 97.40 1398.97 88.57 1370.00 91.00 C 1341.03 93.43 1308.03 89.92 1278.00 91.00 C 1247.97 92.08 1215.52 90.51 1185.00 91.00 C 1154.48 91.49 1122.71 90.78 1092.00 91.00 C 1061.29 91.22 1030.80 90.90 1000.00 91.00 C 969.20 91.10 937.87 90.96 907.00 91.00 C 876.13 91.04 844.86 90.99 814.00 91.00 C 783.14 91.01 752.86 91.01 722.00 91.00 C 691.14 90.99 659.87 91.05 629.00 91.00 C 598.13 90.95 566.80 91.11 536.00 91.00 C 505.20 90.89 474.71 91.25 444.00 91.00 C 413.29 90.75 381.54 91.54 351.00 91.00 C 320.46 90.46 289.16 92.21 259.00 91.00 C 228.84 89.79 195.36 93.66 166.00 91.00 C 136.64 88.34 109.98 96.91 111.00 129.00 C 112.02 161.09 110.55 189.59 111.00 221.00 C 111.45 252.41 110.80 282.88 111.00 314.00 C 111.20 345.12 110.92 376.08 111.00 407.00 C 111.08 437.92 111.00 468.23 111.00 499.00 C 111.00 529.77 111.07 561.43 111.00 592.00 C 110.93 622.57 111.18 654.91 111.00 685.00 C 110.82 715.09 111.43 747.91 111.00 777.00 C 110.57 806.09 111.95 843.02 111.00 870.00 C 110.05 896.98 108.85 930.26 141.00 932.00
M 1371.00 143.00 
C 1371.00 387.00 1371.00 631.00 1371.00 875.00
C 968.67 875.00 566.33 875.00 164.00 875.00
C 164.00 631.00 164.00 387.00 164.00 143.00
C 566.33 143.00 968.67 143.00 1371.00 143.00 Z"/>
</g>
<g fill="#FEFEFE" fill-opacity="1.00" stroke="None">
<path d="
M 1371.00 143.00 
C 968.67 143.00 566.33 143.00 164.00 143.00
C 164.00 387.00 164.00 631.00 164.00 875.00
C 566.33 875.00 968.67 875.00 1371.00 875.00
C 1371.00 631.00 1371.00 387.00 1371.00 143.00
M 769.00 177.00 
C 796.53 179.08 790.96 210.52 791.00 233.00 C 791.04 255.48 790.97 287.44 791.00 312.00 C 791.03 336.56 790.97 365.56 791.00 391.00 C 791.03 416.44 790.95 444.26 791.00 470.00 C 791.05 495.74 790.89 522.24 791.00 548.00 C 791.11 573.76 790.77 601.49 791.00 627.00 C 791.23 652.51 790.50 681.29 791.00 706.00 C 791.50 730.71 789.90 762.18 791.00 785.00 C 792.10 807.82 793.87 840.52 765.00 838.00 C 736.13 835.48 743.55 804.74 743.00 782.00 C 742.45 759.26 743.25 727.67 743.00 703.00 C 742.75 678.33 743.13 649.49 743.00 624.00 C 742.87 598.51 743.08 570.75 743.00 545.00 C 742.92 519.25 743.10 492.74 743.00 467.00 C 742.90 441.26 743.18 413.45 743.00 388.00 C 742.82 362.55 743.38 333.57 743.00 309.00 C 742.62 284.43 743.83 252.52 743.00 230.00 C 742.17 207.48 739.77 174.79 769.00 177.00
M 487.00 211.00 
C 512.30 215.11 503.99 244.84 497.68 261.68 C 491.37 278.51 485.03 302.33 479.07 320.07 C 473.12 337.82 467.09 360.69 461.07 378.07 C 455.06 395.46 452.39 424.45 426.98 419.02 C 401.57 413.60 409.28 387.65 415.93 369.93 C 422.57 352.21 427.48 329.13 433.93 310.93 C 440.37 292.72 445.77 270.86 451.93 252.93 C 458.08 234.99 460.63 206.72 487.00 211.00
M 381.00 229.00 
C 392.37 231.36 399.43 246.66 396.22 257.22 C 393.01 267.79 382.01 273.08 374.25 280.25 C 366.49 287.42 357.03 293.31 349.25 300.25 C 341.47 307.20 326.66 314.30 337.08 321.92 C 347.51 329.54 352.34 334.79 361.75 342.25 C 371.15 349.72 376.63 355.28 385.75 363.25 C 394.87 371.22 393.91 386.57 385.25 395.25 C 376.59 403.92 361.38 403.32 352.75 395.25 C 344.13 387.18 336.95 381.92 328.30 374.70 C 319.66 367.47 312.71 360.95 303.92 354.08 C 295.13 347.22 288.63 340.26 279.30 333.70 C 269.97 327.13 265.46 311.55 273.77 302.77 C 282.08 293.99 289.80 290.01 298.25 282.25 C 306.69 274.48 314.67 269.89 323.23 262.23 C 331.79 254.57 339.34 250.33 348.23 242.23 C 357.12 234.13 367.20 226.14 381.00 229.00
M 562.00 229.00 
C 572.66 231.21 580.48 243.42 589.75 249.25 C 599.02 255.08 606.96 264.54 616.23 270.77 C 625.50 277.00 632.70 286.73 642.25 292.75 C 651.79 298.77 662.78 310.97 657.67 322.67 C 652.56 334.38 642.36 338.44 633.75 346.75 C 625.15 355.07 616.31 360.36 607.75 368.75 C 599.20 377.14 589.56 380.92 581.25 390.25 C 572.93 399.58 558.41 405.66 546.77 399.23 C 535.13 392.80 530.87 376.61 538.77 366.77 C 546.67 356.93 554.47 352.35 564.25 344.25 C 574.02 336.15 579.28 330.43 590.25 322.25 C 601.22 314.07 586.92 307.48 578.25 299.75 C 569.58 292.02 561.25 285.34 551.92 278.08 C 542.59 270.83 531.26 262.77 533.00 249.00 C 534.74 235.23 547.78 226.05 562.00 229.00
M 1272.00 251.00 
C 1286.42 253.99 1298.15 273.98 1287.08 288.08 C 1276.01 302.17 1257.33 300.55 1239.00 300.00 C 1220.67 299.45 1198.30 300.26 1179.00 300.00 C 1159.70 299.74 1137.66 300.16 1118.00 300.00 C 1098.34 299.84 1077.70 300.17 1058.00 300.00 C 1038.30 299.83 1017.53 300.28 998.00 300.00 C 978.48 299.72 957.04 300.59 938.00 300.00 C 918.96 299.41 895.47 301.68 877.93 299.07 C 860.39 296.47 851.61 277.52 861.31 262.31 C 871.00 247.09 892.04 251.02 910.00 251.00 C 927.96 250.98 950.84 250.95 970.00 251.00 C 989.16 251.05 1011.35 250.84 1031.00 251.00 C 1050.65 251.16 1071.20 250.63 1091.00 251.00 C 1110.80 251.37 1131.18 250.17 1151.00 251.00 C 1170.82 251.83 1191.28 249.16 1211.00 251.00 C 1230.72 252.84 1252.67 247.00 1272.00 251.00
M 1270.00 400.00 
C 1287.83 402.90 1301.27 432.28 1281.75 443.75 C 1262.24 455.22 1236.09 447.28 1213.00 449.00 C 1189.91 450.72 1162.75 448.31 1139.00 449.00 C 1115.25 449.69 1088.79 448.88 1065.00 449.00 C 1041.21 449.12 1014.26 449.37 991.00 449.00 C 967.74 448.63 938.78 450.11 917.00 449.00 C 895.22 447.89 867.02 456.76 859.03 431.98 C 851.03 407.19 877.04 397.31 899.00 400.00 C 920.96 402.69 949.57 398.65 973.00 400.00 C 996.43 401.35 1022.92 399.10 1047.00 400.00 C 1071.08 400.90 1096.66 398.96 1121.00 400.00 C 1145.34 401.04 1170.61 398.12 1195.00 400.00 C 1219.39 401.88 1245.87 396.08 1270.00 400.00
M 657.00 553.00 
C 686.28 554.59 685.28 602.00 654.00 601.00 C 622.72 600.00 589.62 601.32 558.00 601.00 C 526.38 600.68 493.72 600.87 462.00 601.00 C 430.28 601.13 397.63 600.33 366.00 601.00 C 334.37 601.67 301.29 599.33 270.00 601.00 C 238.71 602.67 236.25 555.02 266.00 553.00
C 296.90 547.46 330.92 553.56 363.00 552.00 C 395.08 550.44 428.72 552.08 461.00 552.00 C 493.28 551.92 526.77 550.66 559.00 552.00 C 591.23 553.34 625.89 547.95 657.00 553.00
M 1270.00 552.00 
C 1287.97 554.92 1301.36 584.18 1281.75 595.75 C 1262.15 607.33 1236.16 599.24 1213.00 601.00 C 1189.84 602.76 1162.78 600.29 1139.00 601.00 C 1115.22 601.71 1088.82 600.87 1065.00 601.00 C 1041.18 601.13 1014.29 601.36 991.00 601.00 C 967.71 600.64 938.84 602.10 917.00 601.00 C 895.16 599.90 867.02 608.85 859.03 583.98 C 851.03 559.10 877.02 549.35 899.00 552.00 C 920.98 554.65 949.56 550.68 973.00 552.00 C 996.44 553.32 1022.91 551.11 1047.00 552.00 C 1071.09 552.89 1096.65 550.96 1121.00 552.00 C 1145.35 553.04 1170.61 550.12 1195.00 552.00 C 1219.39 553.88 1245.87 548.08 1270.00 552.00
M 657.00 646.00 
C 686.61 647.61 685.16 694.83 654.00 694.00 C 622.84 693.17 589.50 694.14 558.00 694.00 C 526.50 693.86 494.62 693.53 463.00 694.00 C 431.38 694.47 398.59 692.62 367.00 694.00 C 335.41 695.38 303.39 690.74 272.00 694.00 C 240.61 697.26 234.85 647.69 266.00 646.00
C 297.05 640.96 330.85 646.34 363.00 645.00 C 395.15 643.66 428.69 644.99 461.00 645.00 C 493.31 645.01 526.76 643.62 559.00 645.00 C 591.24 646.38 625.87 640.95 657.00 646.00
M 1272.00 704.00 
C 1286.42 706.99 1298.15 726.98 1287.08 741.08 C 1276.01 755.17 1257.34 753.55 1239.00 753.00 C 1220.66 752.45 1198.30 753.26 1179.00 753.00 C 1159.70 752.74 1137.66 753.16 1118.00 753.00 C 1098.34 752.84 1077.70 753.17 1058.00 753.00 C 1038.30 752.83 1017.53 753.28 998.00 753.00 C 978.48 752.72 957.04 753.59 938.00 753.00 C 918.96 752.41 895.47 754.68 877.93 752.07 C 860.39 749.47 851.61 730.51 861.31 715.31 C 871.00 700.10 892.04 704.02 910.00 704.00 C 927.96 703.98 950.84 703.95 970.00 704.00 C 989.16 704.05 1011.35 703.85 1031.00 704.00 C 1050.65 704.15 1071.20 703.63 1091.00 704.00 C 1110.80 704.37 1131.18 703.17 1151.00 704.00 C 1170.82 704.83 1191.28 702.16 1211.00 704.00 C 1230.72 705.84 1252.67 700.00 1272.00 704.00 Z"/>
</g>
<g fill="#05C75B" fill-opacity="1.00" stroke="None">
<path d="
M 769.00 177.00 
C 739.77 174.79 742.17 207.48 743.00 230.00 C 743.83 252.52 742.62 284.43 743.00 309.00 C 743.38 333.57 742.82 362.55 743.00 388.00 C 743.18 413.45 742.90 441.26 743.00 467.00 C 743.10 492.74 742.92 519.25 743.00 545.00 C 743.08 570.75 742.87 598.51 743.00 624.00 C 743.13 649.49 742.75 678.33 743.00 703.00 C 743.25 727.67 742.45 759.26 743.00 782.00 C 743.55 804.74 736.13 835.48 765.00 838.00 C 793.87 840.52 792.10 807.82 791.00 785.00 C 789.90 762.18 791.50 730.71 791.00 706.00 C 790.50 681.29 791.23 652.51 791.00 627.00 C 790.77 601.49 791.11 573.76 791.00 548.00 C 790.89 522.24 791.05 495.74 791.00 470.00 C 790.95 444.26 791.03 416.44 791.00 391.00 C 790.97 365.56 791.03 336.56 791.00 312.00 C 790.97 287.44 791.04 255.48 791.00 233.00 C 790.96 210.52 796.53 179.08 769.00 177.00 Z"/>
</g>
<g fill="#11C75D" fill-opacity="1.00" stroke="None">
<path d="
M 487.00 211.00 
C 460.63 206.72 458.08 234.99 451.93 252.93 C 445.77 270.86 440.37 292.72 433.93 310.93 C 427.48 329.13 422.57 352.21 415.93 369.93 C 409.28 387.65 401.57 413.60 426.98 419.02 C 452.39 424.45 455.06 395.46 461.07 378.07 C 467.09 360.69 473.12 337.82 479.07 320.07 C 485.03 302.33 491.37 278.51 497.68 261.68 C 503.99 244.84 512.30 215.11 487.00 211.00 Z"/>
</g>
<g fill="#10C75D" fill-opacity="1.00" stroke="None">
<path d="
M 381.00 229.00 
C 367.20 226.14 357.12 234.13 348.23 242.23 C 339.34 250.33 331.79 254.57 323.23 262.23 C 314.67 269.89 306.69 274.48 298.25 282.25 C 289.80 290.01 282.08 293.99 273.77 302.77 C 265.46 311.55 269.97 327.13 279.30 333.70 C 288.63 340.26 295.13 347.22 303.92 354.08 C 312.71 360.95 319.66 367.47 328.30 374.70 C 336.95 381.92 344.13 387.18 352.75 395.25 C 361.38 403.32 376.59 403.92 385.25 395.25 C 393.91 386.57 394.87 371.22 385.75 363.25 C 376.63 355.28 371.15 349.72 361.75 342.25 C 352.34 334.79 347.51 329.54 337.08 321.92 C 326.66 314.30 341.47 307.20 349.25 300.25 C 357.03 293.31 366.49 287.42 374.25 280.25 C 382.01 273.08 393.01 267.79 396.22 257.22 C 399.43 246.66 392.37 231.36 381.00 229.00 Z"/>
</g>
<g fill="#10C75D" fill-opacity="1.00" stroke="None">
<path d="
M 562.00 229.00 
C 547.78 226.05 534.74 235.23 533.00 249.00 C 531.26 262.77 542.59 270.83 551.92 278.08 C 561.25 285.34 569.58 292.02 578.25 299.75 C 586.92 307.48 601.22 314.07 590.25 322.25 C 579.28 330.43 574.02 336.15 564.25 344.25 C 554.47 352.35 546.67 356.93 538.77 366.77 C 530.87 376.61 535.13 392.80 546.77 399.23 C 558.41 405.66 572.93 399.58 581.25 390.25 C 589.56 380.92 599.20 377.14 607.75 368.75 C 616.31 360.36 625.15 355.07 633.75 346.75 C 642.36 338.44 652.56 334.38 657.67 322.67 C 662.78 310.97 651.79 298.77 642.25 292.75 C 632.70 286.73 625.50 277.00 616.23 270.77 C 606.96 264.54 599.02 255.08 589.75 249.25 C 580.48 243.42 572.66 231.21 562.00 229.00 Z"/>
</g>
<g fill="#13C75D" fill-opacity="1.00" stroke="None">
<path d="
M 1272.00 251.00 
C 1252.67 247.00 1230.72 252.84 1211.00 251.00 C 1191.28 249.16 1170.82 251.83 1151.00 251.00 C 1131.18 250.17 1110.80 251.37 1091.00 251.00 C 1071.20 250.63 1050.65 251.16 1031.00 251.00 C 1011.35 250.84 989.16 251.05 970.00 251.00 C 950.84 250.95 927.96 250.98 910.00 251.00 C 892.04 251.02 871.00 247.09 861.31 262.31 C 851.61 277.52 860.39 296.47 877.93 299.07 C 895.47 301.68 918.96 299.41 938.00 300.00 C 957.04 300.59 978.48 299.72 998.00 300.00 C 1017.53 300.28 1038.30 299.83 1058.00 300.00 C 1077.70 300.17 1098.34 299.84 1118.00 300.00 C 1137.66 300.16 1159.70 299.74 1179.00 300.00 C 1198.30 300.26 1220.67 299.45 1239.00 300.00 C 1257.33 300.55 1276.01 302.17 1287.08 288.08 C 1298.15 273.98 1286.42 253.99 1272.00 251.00 Z"/>
</g>
<g fill="#10C75D" fill-opacity="1.00" stroke="None">
<path d="
M 1270.00 400.00 
C 1245.87 396.08 1219.39 401.88 1195.00 400.00 C 1170.61 398.12 1145.34 401.04 1121.00 400.00 C 1096.66 398.96 1071.08 400.90 1047.00 400.00 C 1022.92 399.10 996.43 401.35 973.00 400.00 C 949.57 398.65 920.96 402.69 899.00 400.00 C 877.04 397.31 851.03 407.19 859.03 431.98 C 867.02 456.76 895.22 447.89 917.00 449.00 C 938.78 450.11 967.74 448.63 991.00 449.00 C 1014.26 449.37 1041.21 449.12 1065.00 449.00 C 1088.79 448.88 1115.25 449.69 1139.00 449.00 C 1162.75 448.31 1189.91 450.72 1213.00 449.00 C 1236.09 447.28 1262.24 455.22 1281.75 443.75 C 1301.27 432.28 1287.83 402.90 1270.00 400.00 Z"/>
</g>
<g fill="#8EE5B5" fill-opacity="1.00" stroke="None">
<path d="
M 266.00 553.00 
C 309.12 550.07 352.74 553.89 396.00 553.00 C 439.26 552.11 482.66 552.44 526.00 553.00 C 569.34 553.56 613.68 550.65 657.00 553.00
C 625.89 547.95 591.23 553.34 559.00 552.00 C 526.77 550.66 493.28 551.92 461.00 552.00 C 428.72 552.08 395.08 550.44 363.00 552.00 C 330.92 553.56 296.90 547.46 266.00 553.00 Z"/>
</g>
<g fill="#10C75D" fill-opacity="1.00" stroke="None">
<path d="
M 1270.00 552.00 
C 1245.87 548.08 1219.39 553.88 1195.00 552.00 C 1170.61 550.12 1145.35 553.04 1121.00 552.00 C 1096.65 550.96 1071.09 552.89 1047.00 552.00 C 1022.91 551.11 996.44 553.32 973.00 552.00 C 949.56 550.68 920.98 554.65 899.00 552.00 C 877.02 549.35 851.03 559.10 859.03 583.98 C 867.02 608.85 895.16 599.90 917.00 601.00 C 938.84 602.10 967.71 600.64 991.00 601.00 C 1014.29 601.36 1041.18 601.13 1065.00 601.00 C 1088.82 600.87 1115.22 601.71 1139.00 601.00 C 1162.78 600.29 1189.84 602.76 1213.00 601.00 C 1236.16 599.24 1262.15 607.33 1281.75 595.75 C 1301.36 584.18 1287.97 554.92 1270.00 552.00 Z"/>
</g>
<g fill="#07C75B" fill-opacity="1.00" stroke="None">
<path d="
M 657.00 553.00 
C 613.68 550.65 569.34 553.56 526.00 553.00 C 482.66 552.44 439.26 552.11 396.00 553.00 C 352.74 553.89 309.12 550.07 266.00 553.00
C 236.25 555.02 238.71 602.67 270.00 601.00 C 301.29 599.33 334.37 601.67 366.00 601.00 C 397.63 600.33 430.28 601.13 462.00 601.00 C 493.72 600.87 526.38 600.68 558.00 601.00 C 589.62 601.32 622.72 600.00 654.00 601.00 C 685.28 602.00 686.28 554.59 657.00 553.00 Z"/>
</g>
<g fill="#91E6B6" fill-opacity="1.00" stroke="None">
<path d="
M 266.00 646.00 
C 309.20 643.65 352.70 646.63 396.00 646.00 C 439.30 645.37 482.64 645.34 526.00 646.00 C 569.36 646.66 613.66 643.65 657.00 646.00
C 625.87 640.95 591.24 646.38 559.00 645.00 C 526.76 643.62 493.31 645.01 461.00 645.00 C 428.69 644.99 395.15 643.66 363.00 645.00 C 330.85 646.34 297.05 640.96 266.00 646.00 Z"/>
</g>
<g fill="#06C75B" fill-opacity="1.00" stroke="None">
<path d="
M 657.00 646.00 
C 613.66 643.65 569.36 646.66 526.00 646.00 C 482.64 645.34 439.30 645.37 396.00 646.00 C 352.70 646.63 309.20 643.65 266.00 646.00
C 234.85 647.69 240.61 697.26 272.00 694.00 C 303.39 690.74 335.41 695.38 367.00 694.00 C 398.59 692.62 431.38 694.47 463.00 694.00 C 494.62 693.53 526.50 693.86 558.00 694.00 C 589.50 694.14 622.84 693.17 654.00 694.00 C 685.16 694.83 686.61 647.61 657.00 646.00 Z"/>
</g>
<g fill="#13C75D" fill-opacity="1.00" stroke="None">
<path d="
M 1272.00 704.00 
C 1252.67 700.00 1230.72 705.84 1211.00 704.00 C 1191.28 702.16 1170.82 704.83 1151.00 704.00 C 1131.18 703.17 1110.80 704.37 1091.00 704.00 C 1071.20 703.63 1050.65 704.15 1031.00 704.00 C 1011.35 703.85 989.16 704.05 970.00 704.00 C 950.84 703.95 927.96 703.98 910.00 704.00 C 892.04 704.02 871.00 700.10 861.31 715.31 C 851.61 730.51 860.39 749.47 877.93 752.07 C 895.47 754.68 918.96 752.41 938.00 753.00 C 957.04 753.59 978.48 752.72 998.00 753.00 C 1017.53 753.28 1038.30 752.83 1058.00 753.00 C 1077.70 753.17 1098.34 752.84 1118.00 753.00 C 1137.66 753.16 1159.70 752.74 1179.00 753.00 C 1198.30 753.26 1220.66 752.45 1239.00 753.00 C 1257.34 753.55 1276.01 755.17 1287.08 741.08 C 1298.15 726.98 1286.42 706.99 1272.00 704.00 Z"/>
</g>
<g fill="#82E2AD" fill-opacity="1.00" stroke="None">
<path d="
M 1394.00 932.00 
C 1324.55 935.77 1254.56 930.35 1185.00 932.00 C 1115.44 933.65 1045.60 931.38 976.00 932.00 C 906.40 932.62 836.60 932.00 767.00 932.00 C 697.40 932.00 627.56 932.61 558.00 932.00 C 488.44 931.39 418.44 933.63 349.00 932.00 C 279.56 930.37 210.27 935.76 141.00 932.00
C 177.45 937.92 217.36 930.96 255.00 933.00 C 292.64 935.04 331.16 932.08 369.00 933.00 C 406.84 933.92 445.07 932.59 483.00 933.00 C 520.93 933.41 559.04 932.83 597.00 933.00 C 634.96 933.17 673.02 932.95 711.00 933.00 C 748.98 933.05 787.03 933.05 825.00 933.00 C 862.97 932.95 901.05 933.17 939.00 933.00 C 976.95 932.83 1015.10 933.40 1053.00 933.00 C 1090.90 932.60 1129.22 933.90 1167.00 933.00 C 1204.78 932.10 1243.48 935.01 1281.00 933.00 C 1318.52 930.99 1357.65 937.90 1394.00 932.00 Z"/>
</g>
</svg>