<?xml version="1.0" encoding="UTF-8"?>
<svg version="1.1" xmlns="http://www.w3.org/2000/svg" width="465" height="412">
<rect width="465" height="412" fill="#FFFFFF"/>
<path d="M 0 0 C 1.31355469 0.00128906 2.62710937 0.00257812 3.98046875 0.00390625 C 16.6712939 1.43987117 25.50089127 11.75251376 34.09838867 20.3527832 L 52.06 44.31 C 53.8553632 51.78276333 53.5434127 59.71606804 49.6418457 66.46142578 L -147.34 270.49 C -157.3048939 281.30416341 -167.60434869 287.15148869 -181.00006104 293.00341797 L -250.95 327.82 C -256.60674547 330.58794366 -260.8762599 332.63445933 -267.1875 331.4375 L -273.19 323.44 L -270.5 309.12 L -228.59 219.74 L -25.29 10.86 C -17.86056604 3.42649161 -10.55045882 -0.15622594 0 0 Z" fill="#03C75A" stroke="#03C75A" stroke-width="3" stroke-linejoin="round" stroke-linecap="round" transform="translate(407.1875,29.5625)"/>
<path d="M0 0 C1.33146057 0.00067978 1.33146057 0.00067978 2.68981934 0.00137329 C3.62011459 -0.00198532 4.55040985 -0.00534393 5.50889587 -0.00880432 C8.60819817 -0.01835896 11.70744655 -0.02026075 14.8067627 -0.02133179 C16.96418785 -0.02454508 19.12161278 -0.02790921 21.27903748 -0.03141785 C25.81961572 -0.03742303 30.3601749 -0.03925671 34.90075684 -0.03866577 C40.68021489 -0.03856494 46.45954787 -0.05212813 52.23897648 -0.06943798 C56.70638065 -0.0806459 61.17375563 -0.08258218 65.64117241 -0.08205605 C67.76871605 -0.08322639 69.89626068 -0.0875942 72.02379036 -0.09538841 C94.22540029 -0.16900301 115.51753681 0.93262139 134.83410645 13.14663696 C135.75449707 13.72800415 136.6748877 14.30937134 137.62316895 14.90835571 C142.23793417 17.97378334 145.126081 20.25107007 147.83410645 25.14663696 C148.81157897 26.48121278 149.79075036 27.81454594 150.77160645 29.14663696 C158.25959781 40.53734701 159.91082725 54.97934076 157.43493652 68.29312134 C153.80486724 83.39306454 146.71448275 93.26387747 133.9005127 101.96694946 C131.83410645 103.14663696 131.83410645 103.14663696 129.83410645 103.14663696 C129.83410645 103.80663696 129.83410645 104.46663696 129.83410645 105.14663696 C130.4167627 105.27038696 130.99941895 105.39413696 131.59973145 105.52163696 C142.38201539 108.23416122 153.97321031 115.16670356 159.88195801 124.86685181 C169.43222449 141.53177438 169.43222449 141.53177438 167.83410645 149.14663696 C165.98283737 152.0681496 163.59773616 154.29406732 161.0802002 156.64663696 C160.38652847 157.32661743 159.69285675 158.0065979 158.97816467 158.70718384 C156.7607877 160.87332566 154.51764269 163.0102634 152.27160645 165.14663696 C150.05677086 167.28873218 147.84758922 169.43649905 145.64002991 171.58609009 C144.26755689 172.91860924 142.88990154 174.24582031 141.50608826 175.56655884 C137.55175778 179.36091447 133.87177203 183.28736754 130.32678223 187.4680481 C128.53564601 189.48227071 126.55866734 191.04450488 124.39660645 192.64663696 C118.64447348 197.60503437 115.96712605 204.05178308 112.90226746 210.84301758 C111.72094373 213.39068616 110.47450263 215.89945514 109.21398926 218.40884399 C108.76726868 219.29911285 108.3205481 220.18938171 107.86029053 221.10662842 C107.35232941 222.11643265 107.35232941 222.11643265 106.83410645 223.14663696 C92.26567718 223.1933164 77.69725947 223.22847299 63.12877083 223.25026131 C56.3646711 223.26058267 49.60061779 223.27465935 42.83654785 223.29751587 C36.31378222 223.31954653 29.79104678 223.33119253 23.2682457 223.33639145 C20.77465936 223.34009833 18.28107579 223.34733649 15.78750992 223.35809708 C12.30575004 223.37252993 8.82419201 223.37461835 5.34240723 223.37368774 C3.78226898 223.38447357 3.78226898 223.38447357 2.19061279 223.39547729 C1.24547821 223.39272797 0.30034363 223.38997864 -0.6734314 223.387146 C-1.49751432 223.38898958 -2.32159725 223.39083317 -3.17065239 223.39273262 C-5.16589355 223.14663696 -5.16589355 223.14663696 -7.16589355 221.14663696 C-7.3616375 218.25311289 -7.43065791 215.45539891 -7.41313171 212.56080627 C-7.41554613 211.66142147 -7.41796054 210.76203667 -7.42044812 209.83539778 C-7.42611096 206.80357361 -7.41740258 203.77195773 -7.40881348 200.74014282 C-7.40988571 198.57400963 -7.41182351 196.40787672 -7.41456604 194.241745 C-7.41942662 188.34526197 -7.41174383 182.44885424 -7.401613 176.55238032 C-7.39285331 170.39488095 -7.39458953 164.23738409 -7.39497375 158.07987976 C-7.39403623 147.73875665 -7.38534005 137.39766282 -7.3717041 127.05654907 C-7.3559735 115.08228906 -7.35070609 103.10807976 -7.35143965 91.13380903 C-7.35204897 79.63709436 -7.34695264 68.14039019 -7.33864784 56.64367867 C-7.33510749 51.74056478 -7.33328352 46.83745462 -7.33275414 41.93433952 C-7.33175318 36.16670612 -7.32567692 30.3990999 -7.315588 24.63147545 C-7.31265511 22.50815751 -7.31143921 20.38483645 -7.31201553 18.26151657 C-7.31250253 15.37614302 -7.3068872 12.49084683 -7.29960632 9.60548401 C-7.30115493 8.75375246 -7.30270353 7.90202092 -7.30429906 7.02447933 C-7.27494375 0.04076975 -6.95947551 0.03697135 0 0 Z " fill="#03C75A" transform="translate(52.1658935546875,43.853363037109375)"/>
<path d="M 0 0 C 1.30536337 -0.01080678 1.30536337 -0.01080678 2.63709772 -0.02183187 C 5.55870115 -0.04458678 8.48029618 -0.06013346 11.40194702 -0.07553101 C 13.49466152 -0.08998029 15.58737391 -0.10473795 17.68008423 -0.11978149 C 36.7793481 -0.25001636 55.87919471 -0.31591441 74.97881508 -0.36762428 C 89.09520779 -0.40654093 103.21080317 -0.47491717 117.32684577 -0.58217204 C 127.2548008 -0.65505921 137.18253789 -0.69346445 147.1107496 -0.70665014 C 153.03927262 -0.71550989 158.96680931 -0.7397213 164.8950386 -0.80131912 C 170.47517105 -0.85864225 176.05381053 -0.87321596 181.63419342 -0.85544586 C 183.67801207 -0.85632286 185.72189271 -0.87252747 187.76544571 -0.90549088 L 287.47543335 82.84317017 C 286.42200352 85.27308842 285.44579908 86.6745121 283.55575562 88.5128479 C 282.97696655 89.08325806 282.39817749 89.65366821 281.80184937 90.24136353 C 281.19470093 90.81950806 280.58755249 91.39765259 279.96200562 91.99331665 C 279.35485718 92.59079712 278.74770874 93.18827759 278.12216187 93.80386353 C 273.6301574 98.18081665 273.6301574 98.18081665 272.46200562 98.18081665 C 272.46200562 95.87081665 272.46200562 93.56081665 272.46200562 91.18081665 C 271.37991821 91.1908094 271.37991821 91.1908094 270.27597046 91.20100403 C 263.45022268 91.26132006 256.62451516 91.30689472 249.79856873 91.33625317 C 246.28994297 91.35185456 242.78153895 91.37299029 239.27304077 91.40713501 C 235.23184174 91.44621418 231.19087264 91.46057145 227.14950562 91.4737854 C 225.90024292 91.48926926 224.65098022 91.50475311 223.36386108 91.52070618 C 213.32460467 91.52263298 206.68868002 89.97987943 199.21981812 83.00894165 C 191.70122351 75.18960326 191.17043252 67.5379822 191.26669312 57.21987915 C 191.26952301 56.0741745 191.27235291 54.92846985 191.27526855 53.74804688 C 191.28643427 50.1005291 191.31153263 46.4532598 191.33700562 42.80581665 C 191.34704006 40.32795562 191.3561651 37.85009073 191.36434937 35.3722229 C 191.38636182 29.30833651 191.41980367 23.24459434 191.46200562 17.18081665 C 166.15800552 17.2647003 140.85406931 17.35982774 115.55016232 17.46834373 C 103.80114481 17.51846728 92.05213428 17.56491029 80.30307007 17.60269165 C 70.06269254 17.63563087 59.82236913 17.67547287 49.58205134 17.72360671 C 44.15981027 17.74885241 38.73760501 17.77063947 33.31532097 17.78416061 C 28.2108307 17.79699836 23.10646336 17.81907146 18.00204086 17.84819984 C 16.12959053 17.85726218 14.2571204 17.86296272 12.38464928 17.86503029 C 9.82520749 17.8683623 7.26611223 17.88386514 4.70674133 17.90234375 C 3.59922379 17.89944165 3.59922379 17.89944165 2.46933216 17.89648092 C -3.4756715 17.96050633 -8.47621545 18.24403563 -12.9433279 22.44032383 C -15.89967351 27.69392638 -15.09043508 34.18962036 -15.05265808 40.02870178 C -15.0579848 41.46020427 -15.06505121 42.89170117 -15.07370514 44.32318741 C -15.09234311 48.2525834 -15.08602366 52.18160279 -15.07555211 56.11101449 C -15.06856333 60.35037979 -15.08455558 64.58966749 -15.09754944 68.82901001 C -15.11920018 77.13247238 -15.11905979 85.43579776 -15.11092389 93.73927908 C -15.10462593 100.48775513 -15.10575905 107.2361912 -15.11219597 113.98466682 C -15.11354845 115.42499135 -15.11354845 115.42499135 -15.11492826 116.89441334 C -15.11677944 118.84504303 -15.11864201 120.79567271 -15.12051582 122.74630237 C -15.13709807 141.04161454 -15.1283715 159.33684961 -15.11153024 177.63215715 C -15.09683333 194.37218454 -15.11146079 211.11203244 -15.1403004 227.85203671 C -15.16968902 245.03863866 -15.18066821 262.22515777 -15.1711182 279.41178375 C -15.17009564 281.35557273 -15.16910103 283.29936171 -15.16813469 285.24315071 C -15.1676583 286.19954206 -15.16718191 287.15593341 -15.16669108 288.14130632 C -15.16452622 294.88127367 -15.17433487 301.62116263 -15.18890572 308.36111259 C -15.20641644 316.57558894 -15.20632986 324.78983644 -15.18355406 333.00430375 C -15.17240027 337.19562934 -15.16927483 341.38655156 -15.18785477 345.57785988 C -15.20464766 349.41541527 -15.19832551 353.25221512 -15.17363798 357.08972145 C -15.16875027 358.47727191 -15.17228262 359.86488317 -15.18512542 361.25238281 C -15.40794305 369.7586401 -15.40794305 369.7586401 -12.24873257 377.42924595 C -9.35695698 380.36458106 -7.43953357 381.96260598 -3.32326853 382.43496698 C -2.10468828 382.43789337 -2.10468828 382.43789337 -0.86149025 382.44087887 C 0.07980716 382.44794446 1.02110457 382.45501005 1.99092615 382.46228975 C 3.02184715 382.45987467 4.05276816 382.45745958 5.1149292 382.45497131 C 6.21258909 382.46020799 7.31024898 382.46544467 8.44117129 382.47084004 C 12.13223459 382.48588415 15.82315981 382.48654616 19.51425171 382.48721313 C 22.15532516 382.4948316 24.79638687 382.50320941 27.43745422 382.51243591 C 34.6212748 382.53528467 41.80506584 382.54320619 48.98891783 382.54826236 C 53.47423079 382.55151912 57.95953518 382.55804143 62.44484329 382.56526375 C 74.86302349 382.58482848 87.28119571 382.60123378 99.69939232 382.60414028 C 100.49402989 382.60432785 101.28866746 382.60451542 102.10738496 382.60470868 C 103.7183063 382.60507493 105.32922765 382.60543862 106.94014899 382.60579979 C 107.73981285 382.6059826 108.53947671 382.60616541 109.3633728 382.60635376 C 110.16401231 382.60653431 110.96465181 382.60671486 111.78955312 382.60690088 C 124.76687174 382.6104436 137.74402453 382.63747258 150.72128563 382.67485165 C 164.04429634 382.71291964 177.36722473 382.73229764 190.69029105 382.73259979 C 198.17100465 382.73318466 205.65152037 382.74169542 213.13218307 382.77059746 C 219.50110862 382.79509113 225.86976409 382.80240798 232.23872398 382.78734993 C 235.4882503 382.78017279 238.73713127 382.78378515 241.98661995 382.80376053 C 245.50992091 382.82410141 249.03183282 382.81373796 252.55511475 382.79554749 C 253.58157431 382.80874745 254.60803387 382.82194742 255.66559827 382.83554739 C 260.16510158 382.78235918 263.42274193 382.71506457 267.01868629 379.82989597 C 270.35136016 376.21656662 271.71297679 374.2690829 271.70010376 369.41192627 C 271.70259628 368.43057205 271.70508881 367.44921783 271.70765686 366.43812561 C 271.70039078 365.36273026 271.69312469 364.2873349 271.68563843 363.17935181 C 271.68625023 361.47899025 271.68625023 361.47899025 271.68687439 359.74427795 C 271.68707218 357.27902555 271.68302285 354.81377004 271.67527008 352.34852982 C 271.66507508 348.44863503 271.67040731 344.54906133 271.68069458 340.64916992 C 271.70916112 329.55973374 271.72159127 318.47045626 271.69198608 307.38101196 C 271.67406699 300.60169046 271.68752391 293.82295218 271.71843719 287.0436821 C 271.72455461 284.45768859 271.71963705 281.87164489 271.70355988 279.28569412 C 271.68202183 275.67017585 271.69721107 272.05653583 271.72079468 268.44107056 C 271.70543167 267.36972366 271.69006866 266.29837677 271.67424011 265.19456482 C 271.77351357 258.07987021 271.77351357 258.07987021 273.77248383 255.4695549 C 275.3755188 254.14111328 275.3755188 254.14111328 278.46200562 252.18081665 C 279.80495042 250.52188483 281.13945249 248.8560506 282.46200562 247.18081665 C 285.97924699 244.18081665 285.97924699 244.18081665 288.46200562 244.18081665 C 288.60252241 261.31452656 288.70814543 278.4480552 288.77287865 295.58221054 C 288.80374202 303.53894123 288.84577708 311.49531271 288.91464233 319.45181274 C 288.9746765 326.39133499 289.01320936 333.33059694 289.02653658 340.27037168 C 289.0343202 343.94090859 289.0524522 347.61070123 289.09638596 351.28099823 C 289.1451764 355.39083564 289.14593024 359.49940106 289.14315796 363.60952759 C 289.16472961 364.8100325 289.18630127 366.01053741 289.20852661 367.24742126 C 289.14217275 376.38298688 286.71707963 383.86951714 280.94464684 391.07482529 C 279.21794817 392.73262334 277.50884583 393.94115932 275.46200562 395.18081665 C 274.77113893 395.61701293 274.08027224 396.05320921 273.36847019 396.50262356 C 262.25428501 402.2062193 249.73765755 400.87216882 237.5809021 400.81192017 C 234.94673753 400.81706311 232.31264328 400.82415963 229.67849731 400.83360291 C 223.28749443 400.85190796 216.89679885 400.84351558 210.50580578 400.82551468 C 205.30879613 400.81144614 200.11186947 400.80760498 194.91484261 400.81095695 C 194.17307226 400.8114344 193.43130192 400.81191184 192.66705369 400.81240375 C 191.15982212 400.81343015 189.65259057 400.81448552 188.14535905 400.81556951 C 174.84077183 400.82412198 161.53633228 400.80750831 148.23178101 400.77774048 C 135.34174397 400.74890077 122.45191958 400.74182417 109.56185913 400.75723267 C 95.50080671 400.7740181 81.43985506 400.77800565 67.37879997 400.76052231 C 65.87765095 400.75867805 64.37650191 400.75684333 62.87535286 400.75501823 C 62.13689488 400.75410614 61.39843691 400.75319405 60.63760142 400.75225433 C 55.45036901 400.74666392 50.26318605 400.74994205 45.07595634 400.75656319 C 38.74945019 400.76431851 32.42315282 400.75746494 26.09668856 400.73238815 C 22.87292088 400.71994429 19.64954148 400.71585248 16.42575264 400.72492981 C 12.92227597 400.73365608 9.41973479 400.71761314 5.91633606 400.69548035 C 4.40667846 400.7078415 4.40667846 400.7078415 2.86652273 400.72045237 C -7.1061192 400.6046661 -15.60591433 397.95578198 -22.88565063 390.9737854 C -28.41691539 384.97177471 -30.78722537 379.02189413 -30.78967667 370.89950562 C -30.79489216 369.65117069 -30.80010766 368.40283577 -30.8054812 367.11667252 C -30.8011575 365.73929029 -30.79664421 364.36190864 -30.79196167 362.98452759 C -30.79426673 361.51519491 -30.79744356 360.04586339 -30.80141616 358.57653427 C -30.80976657 354.54268238 -30.80563776 350.5089251 -30.79944372 346.47507286 C -30.79492126 342.12327813 -30.80190197 337.77149974 -30.80740356 333.41970825 C -30.8163014 324.89602774 -30.81437381 316.37238242 -30.80857828 307.84870052 C -30.80406334 300.92192737 -30.80344817 293.99516409 -30.80562592 287.06838989 C -30.80593238 286.08290657 -30.80623885 285.09742324 -30.8065546 284.08207679 C -30.80719404 282.08014838 -30.80784247 280.07821997 -30.80849978 278.07629156 C -30.81420422 259.29984432 -30.8076434 240.5234166 -30.79689905 221.74697256 C -30.78796344 205.6324629 -30.78951545 189.51798205 -30.79873657 173.4034729 C -30.80943719 154.69466299 -30.81365489 135.98587019 -30.80751204 117.27705765 C -30.80687494 115.2824529 -30.8062462 113.28784816 -30.80562592 111.29324341 C -30.80516309 109.82112982 -30.80516309 109.82112982 -30.80469091 108.31927657 C -30.80296335 101.40003152 -30.8058804 94.48079732 -30.81058502 87.56155396 C -30.81619154 79.13045548 -30.81468223 70.69939426 -30.80402353 62.26830006 C -30.79876374 57.96582807 -30.79671533 53.6634182 -30.80332184 49.36094666 C -30.80927701 45.42312861 -30.80601331 41.48543033 -30.79536673 37.54762316 C -30.79313088 36.12240356 -30.79427316 34.69717386 -30.79911831 33.27196074 C -30.80519744 31.3353567 -30.79776769 29.39872436 -30.78967667 27.46212769 C -30.78935196 26.38621494 -30.78902726 25.3103022 -30.78869271 24.20178604 C -30.16657409 16.70512133 -26.83023199 12.2034497 -21.53799438 7.18081665 C -14.24349532 1.49503708 -9.20385711 0.03647036 0 0 Z" fill="#03C75A" stroke="#03C75A" stroke-width="6" stroke-linejoin="round" stroke-linecap="round" transform="translate(34.537994384765625,5.819183349609375)"/>
<path d="M0 0 C2.52409293 1.00667288 3.85611201 2.26438859 5.75073242 4.20800781 C6.41459961 4.88154297 7.0784668 5.55507812 7.76245117 6.24902344 C8.44436523 6.95607422 9.1262793 7.663125 9.82885742 8.39160156 C10.87493164 9.45797852 10.87493164 9.45797852 11.94213867 10.54589844 C13.66132322 12.3004087 15.37311614 14.06153509 17.07885742 15.82910156 C13.3270682 20.2799141 9.48983399 24.49790339 5.30151367 28.54394531 C3.42785779 30.47028748 1.68472929 32.4334801 -0.06347656 34.47143555 C-3.82290337 38.77948036 -7.8005274 42.81975171 -11.86645508 46.83691406 C-12.5993576 47.56602997 -13.33226013 48.29514587 -14.08737183 49.0463562 C-16.40452395 51.35140783 -18.72490623 53.65316335 -21.04614258 55.95410156 C-24.11418242 58.99543515 -27.17881757 62.04014143 -30.24145508 65.08691406 C-30.93739777 65.77455841 -31.63334045 66.46220276 -32.35037231 67.17068481 C-35.21925486 70.02515948 -38.02235918 72.86851644 -40.58862305 76.00048828 C-42.89659859 78.79933741 -45.32500646 81.29725026 -47.92114258 83.82910156 C-48.99238157 84.89286581 -50.06245015 85.95780948 -51.1315918 87.02368164 C-51.70924286 87.59810501 -52.28689392 88.17252838 -52.88204956 88.76435852 C-55.50030018 91.36910987 -58.11579795 93.9766185 -60.73120117 96.58422852 C-62.10334661 97.95134481 -63.47638818 99.31756228 -64.8503418 100.68286133 C-66.85292952 102.67320007 -68.85216385 104.6668571 -70.85083008 106.66113281 C-71.45522919 107.26037064 -72.0596283 107.85960846 -72.68234253 108.477005 C-75.62552954 111.41981134 -78.45206506 114.40734794 -81.15917969 117.56933594 C-85.40599942 122.47906182 -90.00746982 127.02814199 -94.61359215 131.59671593 C-96.2181417 133.18831595 -97.81938317 134.7831818 -99.4198761 136.37886047 C-102.81330167 139.76095666 -106.21067604 143.1390685 -109.60864258 146.51660156 C-113.56070821 150.4449821 -117.5110924 154.37502423 -121.45728493 158.30930519 C-123.0283665 159.87394639 -124.602447 161.4355261 -126.17668152 162.99699402 C-127.14462894 163.96130721 -128.11243529 164.92576203 -129.08007812 165.89038086 C-129.92056198 166.7256279 -130.76104584 167.56087494 -131.6269989 168.4214325 C-133.99012949 170.81988044 -133.99012949 170.81988044 -136.09870911 173.63777161 C-136.70011215 174.36091049 -137.3015152 175.08404938 -137.92114258 175.82910156 C-138.58114258 175.82910156 -139.24114258 175.82910156 -139.92114258 175.82910156 C-140.12868164 175.11625 -140.3362207 174.40339844 -140.55004883 173.66894531 C-142.74190372 166.85493616 -145.24446893 162.27536319 -150.92114258 157.82910156 C-151.58114258 157.49910156 -152.24114258 157.16910156 -152.92114258 156.82910156 C-152.34090893 153.26321698 -151.07377598 151.61807623 -148.5222168 149.10546875 C-147.44506912 148.0335025 -147.44506912 148.0335025 -146.34616089 146.93988037 C-145.17284714 145.79449799 -145.17284714 145.79449799 -143.97583008 144.62597656 C-143.17259308 143.82935608 -142.36935608 143.0327356 -141.54177856 142.2119751 C-138.96688321 139.66050632 -136.38208743 137.11936684 -133.79614258 134.57910156 C-131.23330566 132.05148436 -128.6726615 129.52170317 -126.11477661 126.98907471 C-124.52304096 125.41412253 -122.92822137 123.84227882 -121.32980347 122.27410889 C-117.24051613 118.23896691 -113.36554548 114.10905101 -109.61941528 109.75469971 C-106.78811996 106.5444161 -103.74826473 103.5529564 -100.70239258 100.54785156 C-100.04082153 99.89006714 -99.37925049 99.23228271 -98.69763184 98.55456543 C-95.90536114 95.77843598 -93.10708841 93.00838619 -90.30932617 90.23779297 C-88.2507336 88.19743076 -86.19526355 86.15395825 -84.13989258 84.11035156 C-83.5198938 83.49865112 -82.89989502 82.88695068 -82.2611084 82.25671387 C-79.24081156 79.25311388 -76.34036442 76.20219393 -73.56225586 72.97241211 C-69.41466741 68.17298952 -64.9417956 63.72462955 -60.44458008 59.25488281 C-59.55630524 58.36802292 -58.6680304 57.48116302 -57.75283813 56.56742859 C-55.41232338 54.23153072 -53.069664 51.89781339 -50.72589111 49.56518555 C-48.3464452 47.19599893 -45.96984702 44.82395945 -43.59301758 42.45214844 C-40.1105507 38.97781986 -36.62680027 35.50479032 -33.14135742 32.03344727 C-32.40229156 31.29707031 -31.66322571 30.56069336 -30.90176392 29.80200195 C-29.71111786 28.61599732 -28.5200047 27.43046095 -27.32797241 26.24584961 C-24.38450494 23.3155943 -21.57986738 20.28697291 -18.79614258 17.20410156 C-16.84495778 15.07245649 -14.88455449 12.94948433 -12.92114258 10.82910156 C-12.42146973 10.28721191 -11.92179688 9.74532227 -11.40698242 9.18701172 C-9.94677054 7.61596961 -8.46863278 6.06420271 -6.98364258 4.51660156 C-6.10836914 3.59234375 -5.2330957 2.66808594 -4.33129883 1.71582031 C-1.92114258 -0.17089844 -1.92114258 -0.17089844 0 0 Z " fill="#FFFFFF" transform="translate(386.921142578125,111.1708984375)"/>
<path d="M0 0 C2.94475073 1.42064898 4.86595676 3.62197636 7.11938477 5.96435547 C8.01141602 6.88345703 8.90344727 7.80255859 9.82250977 8.74951172 C10.83571289 9.81492187 10.83571289 9.81492187 11.86938477 10.90185547 C10.29374687 14.71656868 7.89188583 17.11471201 4.97998047 20.00244141 C4.4837468 20.49736084 3.98751312 20.99228027 3.47624207 21.50219727 C1.83710088 23.13485689 0.1910975 24.7604191 -1.45483398 26.38623047 C-2.60156899 27.52668873 -3.74778615 28.6676679 -4.89350891 29.80914307 C-7.91317198 32.8155062 -10.93834074 35.81626221 -13.96514893 38.81542969 C-18.79258586 43.59977445 -23.61345954 48.39070616 -28.43088722 53.18512726 C-30.1050439 54.84916575 -31.78263173 56.50968439 -33.46061707 58.16986084 C-38.3049126 62.97620695 -43.03036183 67.81916816 -47.46589661 73.01104736 C-50.69056001 76.67366013 -54.19364475 80.06569554 -57.66186523 83.49560547 C-58.45661255 84.28656616 -59.25135986 85.07752686 -60.07019043 85.89245605 C-63.43597071 89.2420412 -66.80772572 92.58558817 -70.17895508 95.9296875 C-72.65451751 98.38706486 -75.12699606 100.84751605 -77.59936523 103.30810547 C-78.35060669 104.05104858 -79.10184814 104.7939917 -79.87585449 105.55944824 C-83.91585302 109.58085121 -87.75410342 113.70018643 -91.47418213 118.01834106 C-94.04337703 120.93974827 -96.78152106 123.67688753 -99.54467773 126.41357422 C-100.12220795 126.98968948 -100.69973816 127.56580475 -101.29476929 128.15937805 C-103.11267984 129.97177029 -104.93405442 131.78063278 -106.75561523 133.58935547 C-107.98241256 134.81112493 -109.20897676 136.03312852 -110.43530273 137.25537109 C-112.6872851 139.4992517 -114.9406016 141.74177291 -117.19555664 143.98266602 C-118.17392723 144.95571135 -119.15228082 145.92877377 -120.13061523 146.90185547 C-121.03537598 147.80137939 -121.94013672 148.70090332 -122.87231445 149.62768555 C-125.21195429 151.98376609 -127.4267765 154.4186569 -129.63061523 156.90185547 C-130.40791992 157.76423828 -131.18522461 158.62662109 -131.98608398 159.51513672 C-133.22900687 160.89842613 -134.46484688 162.2882845 -135.68139648 163.69482422 C-136.94311523 165.08935547 -136.94311523 165.08935547 -139.13061523 166.90185547 C-142.55797067 166.90185547 -145.36424188 164.82294808 -148.13061523 162.90185547 C-148.13061523 162.24185547 -148.13061523 161.58185547 -148.13061523 160.90185547 C-151.10061523 160.57185547 -154.07061523 160.24185547 -157.13061523 159.90185547 C-155.44495972 156.53054444 -154.45035243 154.97744866 -151.89355469 152.45361328 C-150.90661369 151.47174042 -150.90661369 151.47174042 -149.8997345 150.47003174 C-149.18830795 149.77206482 -148.47688141 149.0740979 -147.74389648 148.35498047 C-146.64104561 147.25993195 -146.64104561 147.25993195 -145.51591492 146.14276123 C-143.16301273 143.80766058 -140.80355852 141.479331 -138.44311523 139.15185547 C-136.10135051 136.8378568 -133.76111009 134.52236926 -131.4238739 132.20379639 C-129.97081716 130.76283172 -128.51509715 129.32454572 -127.05622864 127.88946533 C-123.1608922 124.03188947 -119.49242635 120.06216119 -115.91358948 115.91091919 C-112.74034243 112.33528957 -109.33023321 108.99963113 -105.93139648 105.64013672 C-105.17392624 104.88645309 -104.41645599 104.13276947 -103.6360321 103.35624695 C-101.24082871 100.97315029 -98.84239407 98.59334851 -96.44311523 96.21435547 C-93.26963249 93.06752731 -90.09951842 89.91736086 -86.93139648 86.76513672 C-86.20841873 86.05045731 -85.48544098 85.33577789 -84.74055481 84.59944153 C-81.29722654 81.17289339 -78.13642838 77.72476725 -75.13061523 73.90185547 C-73.48664048 72.21280172 -71.81653387 70.54904517 -70.13061523 68.90185547 C-68.95672361 67.7306966 -67.78431893 66.55804629 -66.61303711 65.38427734 C-57.95808919 56.72932943 -49.30314128 48.07438151 -40.64819336 39.41943359 C-40.04094925 38.81157516 -39.43370514 38.20371674 -38.80805969 37.57743835 C-37.34931451 36.12031204 -35.88442045 34.6693465 -34.41845703 33.21948242 C-32.19728697 30.9693952 -30.08733477 28.65743227 -27.99389648 26.28857422 C-22.91416419 20.6174167 -17.65933599 15.13897357 -12.31811523 9.71435547 C-11.85348877 9.23087646 -11.3888623 8.74739746 -10.91015625 8.24926758 C-9.55178829 6.83651761 -8.17544671 5.44111789 -6.79858398 4.04638672 C-5.99702881 3.22501221 -5.19547363 2.4036377 -4.36962891 1.55737305 C-2.13061523 -0.09814453 -2.13061523 -0.09814453 0 0 Z " fill="#FFFFFF" transform="translate(362.130615234375,87.09814453125)"/>
<rect x="95" y="171" width="76" height="61" fill="#FFFFFF"/>
<rect x="95" y="84" width="65" height="48" fill="#FFFFFF"/>
<path d="M0 0 C11.89771646 -0.57159848 11.89771646 -0.57159848 17 3 C20.29733919 6.06181496 20.72748884 9.70426933 21.47265625 13.9765625 C21.87245547 16.20973739 21.87245547 16.20973739 24 18 C26.26911608 18.27437757 26.26911608 18.27437757 28.8125 18.3125 C32.69949843 18.62660088 33.7929102 18.84036828 37 21.3125 C39.85164054 25.14439198 41.27728488 27.73860322 41.1875 32.5625 C41.18105469 33.32691406 41.17460937 34.09132813 41.16796875 34.87890625 C41 37 41 37 40 40 C38.19335938 41.0715332 38.19335938 41.0715332 35.84375 42.05078125 C34.98523438 42.42009766 34.12671875 42.78941406 33.2421875 43.16992188 C31.88480469 43.73549805 31.88480469 43.73549805 30.5 44.3125 C24.19593134 46.94849331 18.57324649 49.7902381 12.95605469 53.69506836 C10.68946238 55.2071672 8.44462095 56.22781031 5.875 57.125 C2.72810073 58.28309802 -0.03318604 59.53333015 -2.875 61.3125 C-6 63 -6 63 -8.01953125 62.80859375 C-10.40531478 61.83451645 -11.26943407 60.7955629 -12.8125 58.75 C-15.81345352 55.02758962 -19.01837148 52.62787482 -23 50 C-21.61977723 44.322435 -19.3982987 39.65227764 -16.5625 34.5625 C-13.90460676 29.77135476 -11.57154818 25.09917956 -9.73071289 19.93530273 C-8.52778617 16.74933543 -6.98464221 13.78413634 -5.4375 10.75 C-4.98213867 9.8528125 -4.98213867 9.8528125 -4.51757812 8.9375 C-3.68119208 7.29023859 -2.84075187 5.6450374 -2 4 C-1.33161457 2.66752743 -0.66402248 1.33465215 0 0 Z " fill="#FFFFFF" transform="translate(191,262)"/>
</svg>
